# Blender v2.79 (sub 0) OBJ File: ''
# www.blender.org
o foo.007_foo.009
v 65.056618 3.533844 -726.897827
v 62.844326 4.844021 -719.361816
v 64.714447 19.940876 -726.868164
v 63.979965 27.031860 -722.220154
v 65.674950 31.771393 -726.884949
v 66.012207 -3.569202 -726.918396
v 67.601662 43.132313 -726.940002
v 66.857140 46.409595 -719.389771
v 69.146103 48.759506 -726.797119
v 69.916313 51.091305 -726.854858
v 69.026924 52.940895 -720.767273
v 72.471207 59.203590 -726.913330
v 70.093338 56.927521 -718.402161
v 98.368164 105.130791 -727.004395
v 98.798691 107.466599 -719.082397
v 101.960205 109.766769 -726.859741
v 103.249947 112.780434 -718.479431
v 106.375282 115.276260 -726.889771
v 112.431900 122.077469 -721.275085
v 121.977333 130.348053 -726.910095
v 64.201096 -0.265829 -721.070251
v 66.849998 38.245766 -726.802002
v 64.661613 36.041214 -719.943542
v 86.870621 88.762856 -726.909363
v 84.049896 83.874969 -726.929932
v 81.092087 82.949036 -713.815857
v 125.006683 131.767548 -710.150696
v 129.242218 135.816696 -726.905029
v 147.662262 146.275375 -710.017517
v 62.228096 18.708378 -716.448242
v 63.408230 31.053118 -716.763123
v 75.043549 64.972694 -726.920471
v 73.414864 67.485611 -713.028931
v 76.261360 70.864853 -719.693115
v 77.351517 70.671867 -726.969727
v 80.439133 76.312805 -726.919800
v 77.284721 76.355103 -709.897705
v 82.466217 80.337463 -726.917908
v 65.433434 -7.274991 -712.129944
v 82.729988 86.252419 -709.930847
v 89.625473 93.137878 -726.932983
v 109.355095 119.640610 -706.574524
v 153.235779 149.666534 -708.265381
v 61.498032 6.004941 -711.633667
v 61.816261 28.037155 -710.984070
v 66.083702 49.740467 -711.457703
v 93.367722 98.689697 -726.947266
v 82.970505 87.689163 -703.645569
v 119.803154 128.389038 -705.524658
v 63.569984 39.095055 -711.975281
v 69.703880 60.829147 -707.910095
v 90.806496 98.039719 -709.901062
v 95.085449 102.815170 -717.143250
v 95.336418 104.128326 -706.134155
v 63.320580 -3.187308 -707.594482
v 62.535248 33.654705 -711.098572
v 86.011269 91.885971 -705.797729
v 66.813507 54.036484 -706.343323
v 156.633408 150.875992 -702.979309
v 60.562157 10.446628 -708.884277
v 64.377182 46.450371 -708.126526
v 73.909851 69.841156 -706.341980
v 60.699940 22.438606 -707.638000
v 78.005402 80.060623 -699.105591
v 102.843468 113.464737 -707.918030
v 61.938805 -2.969790 -691.308716
v 63.080849 45.724831 -701.179932
v 150.103226 145.550949 -697.416443
v 60.755085 32.728058 -702.201843
v 61.945290 38.618881 -702.926086
v 95.626564 105.238075 -687.416687
v 60.636009 0.678582 -697.270996
v 59.907612 27.692751 -700.808533
v 64.779572 -5.889395 -698.151611
v 117.498474 126.917686 -688.623779
v 58.736938 9.247021 -697.320435
v 59.189056 23.163303 -698.761963
v 86.703156 93.713615 -695.658264
v 88.263458 95.832771 -693.512207
v 89.282562 97.907524 -686.103027
v 61.678566 43.744015 -694.184998
v 67.508537 61.695980 -693.551636
v 70.024803 65.917206 -695.215820
v 73.249352 72.348640 -695.511780
v 101.966423 113.013268 -675.793579
v 60.450367 38.512642 -692.501221
v 65.399933 59.366695 -685.423096
v 93.074081 101.701637 -691.993042
v 98.401405 108.614311 -683.947815
v 58.948959 28.093685 -692.349976
v 60.102421 0.489582 -687.959717
v 78.540077 82.655533 -691.086670
v 58.303726 20.650888 -691.948120
v 59.437660 33.722878 -691.535217
v 64.143478 56.094254 -684.452576
v 82.463364 88.518471 -690.047668
v 62.493526 54.019878 -676.605164
v 71.947006 73.879211 -683.844177
v 59.278294 39.473030 -682.053955
v 67.964607 66.931824 -680.303101
v 58.695728 1.785305 -676.998413
v 58.302677 29.159620 -685.490295
v 73.921913 77.608887 -680.353333
v 76.334854 81.544754 -680.049805
v 76.422997 82.750481 -673.656311
v 61.339127 50.247154 -676.689331
v 81.873863 90.165100 -675.005127
v 57.565102 14.152391 -684.972412
v 57.147957 18.451450 -679.805969
v 69.695251 70.506622 -678.085388
v 115.957985 125.039734 -675.145813
v 57.298138 7.946562 -674.890503
v 65.620392 63.276253 -673.201355
v 111.829689 121.880684 -680.109314
v 57.271847 28.396399 -674.791809
v 87.093475 96.799339 -672.886719
v 59.359020 -7.018333 -668.660767
v 63.714855 58.446377 -672.869324
v 57.919949 36.706490 -673.668091
v 60.008652 47.825077 -669.899109
v 91.239265 101.665413 -672.736755
v 56.745560 22.513323 -672.828186
v 70.906456 77.279205 -660.899597
v 80.021774 89.380524 -667.664551
v 67.221153 68.372253 -664.372009
v 56.279095 12.456649 -665.797424
v 69.440170 72.639008 -668.663757
v 70.923996 75.857384 -665.858093
v 108.450539 119.402893 -668.395935
v 58.003029 -1.715632 -667.624268
v 72.170090 79.731033 -657.609558
v 56.580296 32.101955 -666.723633
v 58.793827 47.806248 -659.967041
v 60.762489 53.095608 -662.132935
v 62.099419 56.366188 -664.101868
v 56.635002 0.525832 -660.786621
v 56.834850 39.953239 -656.778870
v 82.641563 93.717957 -661.783142
v 84.964066 96.638496 -660.803772
v 62.510029 60.716366 -655.528992
v 88.527046 100.285919 -663.511108
v 100.322876 111.941063 -666.207947
v 65.226746 64.000145 -662.876770
v 55.918182 35.131245 -654.960754
v 57.400631 -5.132709 -661.078552
v 96.278755 109.187630 -656.054199
v 55.766548 10.187887 -658.227173
v 57.458160 47.075127 -649.644409
v 77.747871 89.016556 -655.825195
v 67.449684 71.845100 -652.877197
v 64.978676 67.192398 -653.309814
v 70.717644 79.838638 -647.754639
v 72.703339 84.110756 -644.469299
v 58.877213 55.672371 -643.595337
v 79.623917 92.368446 -652.103271
v 83.189133 97.435532 -646.900757
v 76.129272 89.110680 -644.812744
v 92.392471 106.594925 -649.097778
v 63.886932 71.394615 -636.305542
v 77.822548 94.365295 -635.885132
v 96.697922 111.928871 -640.491028
v 60.240128 62.739471 -637.020142
v 73.053001 86.996857 -638.115295
v 92.519547 108.908371 -637.157654
v 85.267838 102.713921 -634.398071
vn -0.9607 -0.0746 -0.2674
vn -0.9753 -0.1113 -0.1908
vn -0.9684 -0.0055 -0.2494
vn -0.9685 0.0583 -0.2420
vn -0.9673 0.0940 -0.2357
vn -0.9646 0.1085 -0.2402
vn -0.9463 0.2520 -0.2027
vn -0.9465 0.2510 -0.2029
vn -0.9410 0.2687 -0.2056
vn -0.9300 0.2913 -0.2244
vn -0.9102 0.3773 -0.1707
vn -0.9315 0.3118 -0.1872
vn -0.9227 0.3482 -0.1654
vn -0.7907 0.5998 -0.1230
vn -0.7947 0.5926 -0.1315
vn -0.7809 0.6094 -0.1372
vn -0.7702 0.6277 -0.1131
vn -0.7534 0.6520 -0.0857
vn -0.7380 0.6695 -0.0848
vn -0.6793 0.7310 -0.0646
vn -0.6662 0.7449 -0.0346
vn -0.9655 -0.1292 -0.2260
vn -0.9556 -0.2367 -0.1756
vn -0.9588 -0.2317 -0.1646
vn -0.9546 0.1539 -0.2551
vn -0.9606 0.1499 -0.2341
vn -0.9657 0.1314 -0.2239
vn -0.8443 0.5182 -0.1366
vn -0.8768 0.4516 -0.1654
vn -0.8674 0.4795 -0.1331
vn -0.6016 0.7977 0.0420
vn -0.5992 0.7996 0.0394
vn -0.6029 0.7967 0.0411
vn -0.9781 0.0285 -0.2061
vn -0.9679 0.1428 -0.2066
vn -0.9716 0.1184 -0.2049
vn -0.9555 0.1396 -0.2600
vn -0.8995 0.3998 -0.1762
vn -0.8888 0.4389 -0.1318
vn -0.9172 0.3702 -0.1472
vn -0.9010 0.4102 -0.1411
vn -0.9129 0.3795 -0.1505
vn -0.8735 0.4586 -0.1630
vn -0.8651 0.4749 -0.1615
vn -0.8716 0.4624 -0.1627
vn -0.8978 0.4043 -0.1747
vn -0.9728 0.0477 -0.2265
vn -0.9265 0.3004 -0.2266
vn -0.9319 0.2893 -0.2190
vn -0.8911 0.4221 -0.1666
vn -0.9058 0.4028 -0.1311
vn -0.8809 0.4438 -0.1644
vn -0.9616 -0.2114 -0.1751
vn -0.9351 -0.3298 -0.1297
vn -0.8906 0.4385 -0.1206
vn -0.8346 0.5423 -0.0965
vn -0.8299 0.5464 -0.1127
vn -0.7687 0.6362 -0.0662
vn -0.7224 0.6897 -0.0494
vn -0.6746 0.7379 -0.0221
vn -0.6978 0.7158 -0.0279
vn -0.9742 -0.1688 -0.1498
vn -0.9712 0.1317 -0.1988
vn -0.9316 0.3158 -0.1801
vn -0.8045 0.5858 -0.0983
vn -0.8325 0.5482 -0.0802
vn -0.6338 0.7734 -0.0133
vn -0.9780 0.0834 -0.1912
vn -0.9783 0.0709 -0.1947
vn -0.9536 0.2196 -0.2061
vn -0.9152 0.3682 -0.1641
vn -0.8029 0.5909 -0.0785
vn -0.8235 0.5507 -0.1364
vn -0.7787 0.6257 -0.0469
vn -0.9429 -0.3271 -0.0627
vn -0.9723 0.1157 -0.2029
vn -0.9694 0.1535 -0.1916
vn -0.9591 0.1945 -0.2059
vn -0.8186 0.5687 -0.0804
vn -0.9208 0.3540 -0.1638
vn -0.9819 -0.0552 -0.1813
vn -0.9503 0.2610 -0.1699
vn -0.9283 0.3388 -0.1530
vn -0.8938 0.4276 -0.1355
vn -0.9075 0.3997 -0.1292
vn -0.7913 0.6090 -0.0546
vn -0.9821 0.0580 -0.1792
vn -0.8652 0.4896 -0.1082
vn -0.7825 0.6203 -0.0549
vn -0.9714 0.1202 -0.2049
vn -0.8901 0.4387 -0.1233
vn -0.8819 -0.4664 -0.0689
vn -0.9684 0.1904 -0.1608
vn -0.9547 0.2626 -0.1403
vn -0.7842 0.6180 -0.0558
vn -0.5481 0.8220 0.1549
vn -0.5480 0.8224 0.1530
vn -0.5499 0.8209 0.1543
vn -0.9757 0.1212 -0.1826
vn -0.9689 0.1742 -0.1757
vn -0.9733 0.1583 -0.1664
vn -0.9689 0.1853 -0.1642
vn -0.9715 0.1698 -0.1655
vn -0.7569 0.6529 -0.0272
vn -0.7607 0.6486 -0.0259
vn -0.7609 0.6473 -0.0451
vn -0.9841 -0.1389 -0.1106
vn -0.9802 0.1144 -0.1615
vn -0.9428 -0.3121 -0.1174
vn -0.9672 0.1947 -0.1634
vn -0.7989 -0.5996 -0.0474
vn -0.8855 -0.4647 0.0059
vn -0.6874 0.7261 0.0175
vn -0.9755 -0.1542 -0.1572
vn -0.9889 0.0601 -0.1359
vn -0.9854 0.0913 -0.1435
vn -0.9802 0.1217 -0.1564
vn -0.7934 0.6066 -0.0501
vn -0.8160 0.5760 -0.0491
vn -0.7955 0.6035 -0.0543
vn -0.7797 0.6217 -0.0745
vn -0.6280 0.7780 -0.0179
vn -0.9731 0.1847 -0.1380
vn -0.9674 0.2234 -0.1196
vn -0.8824 0.4435 -0.1573
vn -0.8808 0.4473 -0.1552
vn -0.8902 0.4293 -0.1526
vn -0.9087 0.3911 -0.1460
vn -0.7162 0.6976 -0.0219
vn -0.9740 0.1798 -0.1378
vn -0.9741 0.1794 -0.1376
vn -0.9743 0.1788 -0.1372
vn -0.9234 0.3636 -0.1230
vn -0.9286 0.3425 -0.1428
vn -0.7873 0.6148 -0.0470
vn -0.8838 -0.4596 -0.0878
vn -0.8700 -0.4540 -0.1921
vn -0.6233 -0.7202 -0.3045
vn -0.7498 0.6613 -0.0225
vn -0.7532 0.6568 -0.0360
vn -0.9895 0.0934 -0.1101
vn -0.9485 -0.3104 -0.0631
vn -0.9953 -0.0772 -0.0586
vn -0.9239 -0.3373 -0.1808
vn -0.8679 0.4847 -0.1085
vn -0.8516 0.5112 -0.1160
vn -0.8461 0.5257 -0.0878
vn -0.5410 0.8257 0.1596
vn -0.5398 0.8268 0.1578
vn -0.9733 0.1959 -0.1197
vn -0.9936 0.0422 -0.1046
vn -0.9827 0.1285 -0.1334
vn -0.9744 0.1784 -0.1370
vn -0.9415 0.3149 -0.1203
vn -0.8236 0.5635 -0.0647
vn -0.8020 0.5925 -0.0762
vn -0.9877 0.1201 -0.1004
vn -0.9437 0.3126 -0.1079
vn -0.8781 0.4520 -0.1573
vn -0.8826 0.4559 -0.1151
vn -0.6987 0.7153 0.0110
vn -0.7524 0.6561 -0.0586
vn -0.9704 0.2095 -0.1205
vn -0.8810 0.4480 -0.1522
vn -0.9826 -0.1671 -0.0809
vn -0.9526 -0.2774 -0.1251
vn -0.9761 -0.1886 -0.1083
vn -0.9865 0.1188 -0.1127
vn -0.8481 0.5197 -0.1032
vn -0.8286 0.5505 -0.1019
vn -0.8541 0.4994 -0.1454
vn -0.9586 0.2629 -0.1098
vn -0.8074 0.5773 -0.1221
vn -0.9952 0.0082 -0.0977
vn -0.9952 0.0464 -0.0863
vn -0.9971 0.0153 -0.0746
vn -0.9936 0.0679 -0.0898
vn -0.8610 0.4934 -0.1234
vn -0.8667 0.4869 -0.1085
vn -0.8699 0.4830 -0.0998
vn -0.8782 0.4648 -0.1129
vn -0.6413 0.7673 0.0025
vn -0.9814 -0.1661 -0.0965
vn -0.9954 -0.0672 -0.0678
vn -0.9972 -0.0076 -0.0742
vn -0.9032 0.4132 -0.1159
vn -0.9222 0.3694 -0.1143
vn -0.6040 0.7969 -0.0082
vn -0.9930 0.0765 -0.0902
vn -0.9849 0.1309 -0.1131
vn -0.7550 0.6493 -0.0920
vn -0.9629 -0.2147 -0.1634
vn -0.9284 -0.3328 -0.1652
vn -0.9384 0.3301 -0.1018
vn -0.9940 -0.0693 -0.0846
vn -0.9845 0.1318 -0.1160
vn -0.9819 0.1571 -0.1056
vn -0.9590 0.2622 -0.1076
vn -0.9325 0.3457 -0.1047
vn -0.7454 0.6599 -0.0939
vn -0.9967 0.0314 -0.0751
vn -0.9916 0.0651 -0.1119
vn -0.8663 0.4889 -0.1028
vn -0.8358 0.5269 -0.1546
vn -0.9920 0.0894 -0.0892
vn -0.8755 0.4759 -0.0839
vn -0.9971 -0.0284 -0.0709
vn -0.8698 0.4757 -0.1312
vn -0.8640 0.4902 -0.1145
vn -0.7665 0.6312 -0.1188
vn -0.6718 0.7406 -0.0106
vn -0.9699 -0.1866 -0.1562
vn -0.9280 0.3594 -0.0982
vn -0.9278 0.3598 -0.0986
vn -0.9275 0.3587 -0.1047
vn -0.8464 0.5219 -0.1062
vn -0.9923 0.0844 -0.0901
vn -0.9599 0.2550 -0.1165
vn -0.9436 0.3094 -0.1180
vn -0.8653 0.4903 -0.1040
vn -0.9370 0.3368 -0.0927
vn -0.9027 0.4228 -0.0804
vn -0.9836 -0.1241 -0.1308
vn -0.9807 0.1703 -0.0964
vn -0.9225 0.3703 -0.1088
vn -0.7596 0.6364 -0.1344
vn -0.7521 0.6452 -0.1346
vn -0.9445 0.3119 -0.1034
vn -0.9270 0.3581 -0.1113
vn -0.7346 0.6693 -0.1114
vn -0.7175 0.6930 -0.0700
vn -0.7092 0.7022 -0.0621
vn -0.9494 0.2960 -0.1047
vn -0.9317 0.3346 -0.1412
vn -0.9146 0.3913 -0.1015
vn -0.9159 0.3964 -0.0627
vn -0.8882 0.4484 -0.1002
vn -0.9928 0.0923 -0.0764
vn -0.9727 -0.1566 -0.1713
vn -0.7081 0.6976 -0.1095
vn -0.9940 -0.0663 -0.0872
vn -0.9967 -0.0269 -0.0764
vn -0.9738 0.2003 -0.1074
vn -0.8943 0.4248 -0.1408
vn -0.8397 0.5386 -0.0698
vn -0.8098 0.5694 -0.1415
vn -0.9195 0.3809 -0.0968
vn -0.8745 0.4613 -0.1497
vn -0.8741 0.4781 -0.0862
vn -0.8858 0.4586 -0.0711
vn -0.8827 0.4453 -0.1502
vn -0.8605 0.4863 -0.1517
vn -0.8466 0.5099 -0.1522
vn -0.8250 0.5502 -0.1288
vn -0.9410 0.3087 -0.1386
vn -0.7729 0.6199 -0.1354
vn -0.7065 0.6933 -0.1417
vn -0.7444 0.6543 -0.1335
vn -0.8016 0.5851 -0.1228
vn -0.7152 0.6895 -0.1146
vn -0.8659 0.4691 -0.1738
vn -0.8224 0.5549 -0.1256
vn -0.7203 0.6742 -0.1630
vn -0.6891 0.7091 -0.1494
vn -0.9356 0.3226 -0.1434
vn -0.8294 0.5359 -0.1581
vn -0.8143 0.5441 -0.2023
vn -0.6733 0.7134 -0.1943
vn -0.7214 0.6729 -0.1636
vn -0.6950 0.6960 -0.1804
vn -0.7982 0.5729 -0.1858
s 1
f 1//1 2//2 3//3
f 3//4 4//5 5//6
f 7//7 8//8 9//9
f 10//10 11//10 12//10
f 12//11 11//12 13//13
f 14//14 15//15 16//16
f 16//17 17//18 18//19
f 18//19 17//18 19//20
f 18//19 19//20 20//21
f 1//22 6//23 21//24
f 1//1 21//24 2//2
f 22//25 5//26 23//27
f 24//28 25//29 26//30
f 20//31 27//32 28//33
f 3//3 2//2 30//34
f 4//5 31//35 5//6
f 5//26 31//36 23//27
f 22//25 23//27 7//37
f 32//38 12//11 33//39
f 32//40 34//41 35//42
f 36//43 35//44 37//45
f 25//29 38//46 26//30
f 3//4 30//47 4//5
f 10//48 9//49 11//12
f 32//38 33//39 34//50
f 35//42 34//41 37//51
f 36//43 37//45 38//52
f 6//53 39//54 21//24
f 38//46 37//55 26//30
f 24//28 40//56 41//57
f 15//58 17//18 16//17
f 17//59 42//60 19//61
f 2//2 44//62 30//34
f 4//63 45//63 31//63
f 9//49 46//64 11//12
f 24//28 26//30 40//56
f 47//65 41//57 48//66
f 19//20 49//67 20//21
f 30//34 45//68 4//69
f 7//7 50//70 8//8
f 9//9 8//8 46//64
f 33//39 12//11 51//71
f 40//56 48//66 41//57
f 47//65 52//72 14//14
f 14//14 52//72 53//73
f 14//14 53//73 15//15
f 15//58 54//74 17//18
f 55//75 2//2 21//24
f 31//36 56//76 23//27
f 23//77 56//77 50//77
f 23//78 50//78 7//78
f 13//13 51//71 12//11
f 47//65 48//66 57//79
f 13//13 58//80 51//71
f 44//62 60//81 30//34
f 21//24 39//54 55//75
f 50//70 61//82 8//8
f 13//13 11//12 58//83
f 34//50 33//39 62//84
f 34//41 62//85 37//51
f 15//58 53//86 54//74
f 30//34 60//81 63//87
f 30//34 63//87 45//68
f 11//12 46//64 58//83
f 26//30 64//88 40//56
f 65//89 42//60 17//59
f 31//36 45//90 56//76
f 8//8 61//82 46//64
f 51//91 62//84 33//39
f 57//79 52//72 47//65
f 55//75 66//92 2//2
f 61//82 50//93 67//94
f 53//73 52//72 54//95
f 29//96 68//97 43//98
f 45//99 69//99 56//99
f 56//100 69//100 70//100
f 56//101 70//102 50//103
f 37//55 64//88 26//30
f 17//104 54//105 71//106
f 44//62 72//107 60//81
f 45//68 63//87 73//108
f 2//2 66//109 44//62
f 50//103 70//102 67//110
f 74//111 55//75 39//112
f 19//61 42//60 75//113
f 60//81 76//114 63//87
f 63//87 76//114 77//115
f 63//87 77//115 73//116
f 45//68 73//108 69//117
f 52//72 57//79 78//118
f 52//119 79//120 80//121
f 19//20 75//122 49//67
f 70//123 81//124 67//94
f 58//80 82//125 51//71
f 51//91 83//126 62//84
f 62//84 84//127 37//128
f 78//118 79//120 52//72
f 65//89 85//129 42//60
f 70//130 69//131 86//132
f 58//83 87//133 82//134
f 82//125 83//126 51//71
f 52//135 80//135 54//135
f 66//136 72//137 44//138
f 55//75 74//111 66//92
f 62//84 83//126 84//127
f 54//105 88//139 71//106
f 71//106 89//140 17//104
f 65//89 17//59 89//140
f 73//116 77//115 90//141
f 72//137 91//142 60//143
f 60//81 91//144 76//114
f 46//64 61//82 87//133
f 58//83 46//64 87//133
f 84//145 64//145 37//145
f 64//88 92//146 40//56
f 40//56 92//147 48//66
f 43//148 68//149 59//149
f 70//123 86//150 81//124
f 76//114 93//151 77//115
f 69//117 73//108 94//152
f 69//131 94//153 86//132
f 61//82 67//94 95//154
f 48//66 92//155 57//79
f 96//156 78//118 57//79
f 73//116 90//141 94//157
f 67//94 81//124 97//158
f 61//82 95//154 87//133
f 84//159 98//160 64//88
f 54//161 80//162 88//139
f 77//115 93//151 90//141
f 86//150 94//157 99//163
f 83//126 82//125 100//164
f 76//165 91//166 101//167
f 90//141 93//151 102//168
f 72//137 66//136 91//142
f 64//88 103//169 92//146
f 92//146 104//170 57//79
f 96//156 105//171 78//118
f 81//124 106//172 97//158
f 67//94 97//158 95//154
f 83//126 100//164 84//127
f 79//120 107//173 80//121
f 93//151 76//114 108//174
f 93//175 109//176 102//177
f 94//157 90//141 99//163
f 84//178 100//179 110//180
f 84//159 110//181 98//160
f 64//88 98//160 103//169
f 104//170 96//156 57//79
f 75//113 42//60 111//182
f 76//165 112//183 108//184
f 93//175 108//185 109//176
f 82//134 87//133 113//186
f 82//187 113//187 100//187
f 42//60 114//188 111//182
f 109//176 115//189 102//177
f 90//141 102//168 99//190
f 81//124 86//150 106//172
f 103//169 104//170 92//146
f 80//162 116//191 88//139
f 91//166 117//192 101//167
f 66//193 117//192 91//166
f 95//154 118//194 87//133
f 88//139 116//191 71//106
f 108//185 112//195 109//176
f 102//196 119//197 99//163
f 86//150 99//163 120//198
f 106//172 86//150 120//198
f 101//167 112//183 76//165
f 95//154 97//158 118//199
f 116//191 121//200 71//106
f 71//106 121//200 89//140
f 109//176 122//201 115//202
f 110//181 103//169 98//160
f 104//170 105//171 96//156
f 105//171 123//203 78//118
f 107//173 124//204 80//121
f 102//177 115//189 119//205
f 110//180 100//179 125//206
f 123//203 79//120 78//118
f 89//140 85//129 65//89
f 109//176 126//207 122//201
f 110//181 127//208 103//169
f 104//170 128//209 105//171
f 80//162 124//210 116//191
f 89//140 121//200 85//129
f 42//60 129//211 114//188
f 109//176 112//195 126//207
f 101//167 130//212 112//183
f 87//213 118//214 113//215
f 103//169 128//209 104//170
f 123//203 131//216 79//120
f 131//216 107//173 79//120
f 119//197 115//202 132//217
f 120//198 99//163 133//218
f 97//158 106//172 134//219
f 103//169 127//220 128//209
f 42//60 85//129 129//211
f 117//192 130//212 101//167
f 106//172 120//198 134//219
f 118//221 97//221 135//221
f 100//222 113//222 125//222
f 112//195 136//223 126//207
f 112//195 130//212 136//223
f 119//197 132//217 137//224
f 110//225 125//225 127//225
f 124//210 138//226 116//191
f 116//191 139//227 121//200
f 122//201 132//217 115//202
f 119//197 133//218 99//163
f 97//158 134//219 135//228
f 113//215 118//214 140//229
f 138//226 139//227 116//191
f 139//227 141//230 121//200
f 121//200 141//230 85//231
f 85//231 141//230 142//232
f 118//233 135//228 140//234
f 125//235 113//236 143//237
f 128//209 123//203 105//171
f 122//201 126//207 144//238
f 122//201 144//238 132//217
f 130//212 145//239 136//223
f 117//192 145//239 130//212
f 134//219 120//198 133//218
f 107//173 131//216 124//204
f 141//230 146//240 142//232
f 136//241 147//242 126//207
f 133//218 119//197 148//243
f 140//244 143//237 113//245
f 124//210 149//246 138//226
f 137//224 132//217 144//238
f 127//247 125//235 150//248
f 127//220 150//249 128//209
f 128//209 150//250 123//203
f 126//207 147//242 144//238
f 119//197 137//224 148//243
f 125//235 143//237 151//251
f 135//228 134//219 140//234
f 124//204 152//252 153//253
f 124//210 153//254 149//246
f 133//218 154//255 134//219
f 140//244 151//251 143//237
f 123//203 150//250 131//216
f 138//226 155//256 139//227
f 141//230 156//257 146//240
f 125//235 151//251 150//248
f 131//216 152//252 124//204
f 138//226 149//246 155//256
f 139//227 156//258 141//230
f 139//227 155//256 156//258
f 149//246 157//259 155//256
f 156//257 158//260 146//240
f 151//251 159//261 150//248
f 131//216 150//248 152//252
f 149//246 153//254 157//262
f 155//263 160//263 156//263
f 158//260 156//257 161//264
f 134//219 162//265 140//234
f 155//266 157//266 160//266
f 134//219 154//255 162//265
f 153//267 163//267 157//267
f 161//264 156//257 164//268
f 152//252 150//248 159//261
f 156//257 160//269 165//270
f 156//257 165//270 164//268
f 157//271 163//271 160//271
