# Blender v2.79 (sub 0) OBJ File: ''
# www.blender.org
o foo.040_foo.042
v 202.545105 136.687332 -638.435913
v 207.917404 139.521698 -647.042664
v 248.058350 69.503723 -644.196411
v 211.807114 134.819672 -640.771362
v 246.646851 76.073845 -645.591736
v 206.000381 134.720856 -636.771240
v 244.865906 75.784576 -627.982422
v 247.160797 68.057198 -634.049866
v 243.855728 81.401299 -628.636169
v 245.867401 71.795334 -629.074524
v 189.831039 132.076859 -629.179626
v 204.799042 131.348068 -630.943054
v 193.846649 133.274231 -631.435730
v 198.509766 133.054703 -631.809998
v 209.746597 129.547852 -631.112122
v 210.872894 127.722656 -629.047180
v 212.731079 125.864235 -628.256348
v 215.346786 123.523170 -627.200500
v 241.677780 86.802925 -626.548889
v 198.089920 130.688828 -628.359009
v 204.369720 128.938812 -627.845581
v 231.355270 106.663933 -624.646973
v 245.952332 67.614998 -624.870728
v 217.293457 119.636208 -624.514648
v 220.406158 117.305870 -623.986450
v 189.410873 129.645798 -619.797119
v 213.279510 121.433319 -623.889465
v 233.718536 101.124130 -622.356689
v 195.790634 126.968391 -620.067139
v 208.094543 125.278656 -625.145142
v 204.956375 125.512428 -623.984375
v 234.519470 97.961090 -621.251404
v 243.002304 77.062035 -621.003174
v 200.320236 125.513771 -621.900085
v 209.971588 121.649719 -622.189026
v 227.964905 107.596855 -622.151733
v 237.043152 94.197922 -622.635132
v 237.281403 89.134636 -618.247925
v 240.887589 83.415703 -620.929871
v 209.376694 118.093048 -616.749207
v 218.402298 114.601128 -619.700928
v 224.073608 109.063393 -619.444824
v 244.084259 70.829155 -618.159424
v 205.407288 121.929604 -618.786804
v 229.183929 103.262459 -618.704285
v 239.777542 81.015289 -615.183350
v 203.995712 120.445961 -612.678955
v 199.713791 123.665085 -613.843323
v 211.069702 114.890961 -612.988586
v 233.926331 93.514145 -616.086487
v 236.218048 85.638527 -611.624695
v 217.355240 110.998108 -614.533936
v 221.261230 106.427010 -613.567993
v 225.016830 104.944672 -615.952881
v 229.504974 98.357597 -614.410156
v 186.445328 130.505096 -613.854248
v 190.894028 127.782692 -606.645142
v 232.532761 91.209480 -609.546631
v 240.294662 77.414276 -610.079224
v 243.100632 67.506393 -606.888611
v 194.756393 126.335274 -608.864502
v 199.648987 122.467377 -603.066772
v 216.269241 108.789742 -609.249329
v 180.436188 130.948929 -601.934937
v 226.420135 97.165497 -602.063049
v 228.429016 93.943047 -600.147888
v 240.750504 71.790718 -600.860596
v 185.374817 129.287643 -601.650452
v 241.552292 68.134949 -600.955078
v 205.872650 117.422623 -598.418518
v 212.555618 111.416893 -594.282837
v 222.393326 101.827339 -603.423828
v 189.571503 127.491920 -599.608826
v 230.720963 91.216629 -601.521362
v 236.899109 80.191368 -599.641541
v 239.501602 73.297722 -597.157959
v 217.162247 106.875053 -596.027100
v 233.364746 87.033661 -600.829529
v 242.370972 66.879631 -593.628296
v 195.637085 124.106911 -593.199707
v 200.733459 121.034416 -594.691956
v 221.012268 103.436607 -586.883057
v 212.101547 112.808037 -579.910645
v 224.359940 98.917549 -591.219482
v 238.627930 76.410904 -586.641235
v 229.487030 93.063896 -585.946960
v 233.639389 86.212967 -589.478882
v 236.575912 80.222183 -590.843140
v 241.758514 69.700241 -585.181946
vn 0.9648 0.2346 0.1188
vn 0.9654 0.2317 0.1197
vn 0.9655 0.2329 0.1165
vn 0.3104 0.8248 0.4725
vn 0.2951 0.8433 0.4492
vn 0.2883 0.8097 0.5112
vn 0.9753 0.1922 0.1091
vn 0.9723 0.2093 0.1038
vn 0.9726 0.1904 0.1335
vn 0.2368 0.8116 0.5340
vn 0.9686 0.2049 0.1408
vn 0.3078 0.7970 0.5196
vn 0.1834 0.8241 0.5359
vn 0.1221 0.8176 0.5627
vn 0.1137 0.8137 0.5701
vn 0.1633 0.7677 0.6197
vn 0.1624 0.8681 0.4691
vn 0.2194 0.7908 0.5714
vn 0.3056 0.7900 0.5316
vn 0.9696 0.1830 0.1626
vn 0.0858 0.8161 0.5715
vn 0.2537 0.7347 0.6291
vn 0.2533 0.7463 0.6156
vn 0.2626 0.7393 0.6200
vn 0.3476 0.6797 0.6460
vn 0.3476 0.6796 0.6460
vn 0.3255 0.8693 0.3720
vn 0.2666 0.7330 0.6258
vn 0.2816 0.7380 0.6132
vn 0.3655 0.6493 0.6669
vn 0.9524 0.2162 0.2147
vn 0.9326 0.2520 0.2583
vn 0.9384 0.2577 0.2301
vn 0.4608 0.7412 0.4882
vn 0.2763 0.7393 0.6141
vn 0.3645 0.6942 0.6207
vn 0.3918 0.6477 0.6534
vn 0.9218 0.2608 0.2869
vn 0.9173 0.2836 0.2796
vn 0.2233 0.9048 0.3627
vn 0.2956 0.6906 0.6601
vn 0.4056 0.7441 0.5309
vn 0.3291 0.7735 0.5417
vn 0.3763 0.7629 0.5257
vn 0.4026 0.6773 0.6157
vn 0.5631 0.5542 0.6131
vn 0.5934 0.6122 0.5227
vn 0.5934 0.6083 0.5271
vn 0.5899 0.6276 0.5080
vn 0.9654 0.1945 0.1740
vn 0.2414 0.8086 0.5365
vn 0.4138 0.7659 0.4921
vn 0.4231 0.7480 0.5113
vn 0.6726 0.5090 0.5371
vn 0.9004 0.3456 0.2641
vn 0.8753 0.3539 0.3296
vn 0.8726 0.4082 0.2684
vn 0.5716 0.8101 0.1307
vn 0.5384 0.8299 0.1462
vn 0.4171 0.8564 0.3044
vn 0.5129 0.7999 0.3116
vn 0.4782 0.8217 0.3101
vn 0.5303 0.6440 0.5515
vn 0.6248 0.7343 0.2653
vn 0.5392 0.6375 0.5504
vn 0.4783 0.7625 0.4357
vn 0.3488 0.7852 0.5116
vn 0.4608 0.7681 0.4447
vn 0.4095 0.7198 0.5606
vn 0.8112 0.3981 0.4284
vn 0.8154 0.3872 0.4304
vn 0.8105 0.4005 0.4276
vn 0.8595 0.3782 0.3439
vn 0.8568 0.4467 0.2576
vn 0.9443 0.2575 0.2050
vn 0.3849 0.8894 0.2467
vn 0.5778 0.6522 0.4907
vn 0.5822 0.5892 0.5603
vn 0.5757 0.6070 0.5478
vn 0.5718 0.6109 0.5477
vn 0.5982 0.5935 0.5384
vn 0.5960 0.5958 0.5384
vn 0.6388 0.5321 0.5557
vn 0.6722 0.5121 0.5347
vn 0.6403 0.5293 0.5567
vn 0.7712 0.4977 0.3969
vn 0.7077 0.4607 0.5356
vn 0.7438 0.5724 0.3452
vn 0.8443 0.3543 0.4020
vn 0.8072 0.4078 0.4268
vn 0.8443 0.4106 0.3444
vn 0.5705 0.7581 0.3160
vn 0.4224 0.9028 0.0803
vn 0.6392 0.6848 0.3500
vn 0.5894 0.5659 0.5765
vn 0.5923 0.5430 0.5952
vn 0.6037 0.5471 0.5798
vn 0.8264 0.5048 0.2494
vn 0.8747 0.4446 0.1928
vn 0.9598 0.2361 0.1521
vn 0.9594 0.2366 0.1535
vn 0.9596 0.2353 0.1541
vn 0.3912 0.9159 0.0900
vn 0.3916 0.9161 0.0859
vn 0.3980 0.9122 0.0977
vn 0.3886 0.9172 0.0877
vn 0.5480 0.8310 0.0957
vn 0.5814 0.8075 0.0992
vn 0.5869 0.7276 0.3553
vn 0.6796 0.6999 0.2198
vn 0.5522 0.8291 0.0877
vn 0.5437 0.8336 0.0973
vn 0.5455 0.8326 0.0962
vn 0.7183 0.6477 0.2541
vn 0.7800 0.6184 0.0962
vn 0.8879 0.4110 0.2068
vn 0.3639 0.9231 0.1240
vn 0.3438 0.9310 0.1230
vn 0.3285 0.9366 0.1222
vn 0.9647 0.2074 0.1621
vn 0.9255 0.3167 0.2079
vn 0.3108 0.9426 0.1222
vn 0.5846 0.8057 0.0953
vn 0.4575 0.8888 -0.0258
vn 0.6219 0.7774 0.0942
vn 0.6414 0.7633 0.0776
vn 0.7680 0.6404 0.0075
vn 0.7598 0.6498 -0.0221
vn 0.7495 0.6619 -0.0145
vn 0.3481 0.9317 0.1039
vn 0.7879 0.6052 0.1134
vn 0.8814 0.4393 0.1737
vn 0.9214 0.3504 0.1682
vn 0.7290 0.6827 0.0496
vn 0.7841 0.6196 0.0358
vn 0.8344 0.5430 0.0946
vn 0.8486 0.5144 0.1237
vn 0.8959 0.4045 0.1838
vn 0.4021 0.9093 0.1067
vn 0.5532 0.8284 0.0883
vn 0.6847 0.7287 -0.0125
vn 0.7513 0.6598 0.0129
vn 0.6020 0.7964 0.0583
vn 0.6023 0.7961 0.0581
vn 0.6856 0.7280 -0.0052
vn 0.8335 0.5481 0.0692
vn 0.9381 0.3454 -0.0243
vn 0.8828 0.4563 0.1120
vn 0.8282 0.5564 0.0675
vn 0.7594 0.6504 -0.0163
vn 0.7598 0.6500 -0.0164
vn 0.8450 0.5347 0.0035
vn 0.8876 0.4605 0.0118
vn 0.8798 0.4752 0.0131
vn 0.8665 0.4989 0.0151
vn 0.8659 0.4993 0.0301
vn 0.8588 0.5121 0.0163
vn 0.9003 0.4341 0.0316
vn 0.9231 0.3798 -0.0599
s 1
f 3//1 5//2 8//3
f 4//4 2//5 6//6
f 8//7 5//8 10//9
f 12//10 4//4 6//6
f 10//9 5//8 7//11
f 15//12 4//4 12//10
f 12//10 1//13 14//14
f 6//6 1//13 12//10
f 12//10 14//14 20//15
f 12//16 20//17 21//18
f 15//12 12//10 16//19
f 8//7 10//9 23//20
f 20//15 14//14 13//21
f 16//22 12//23 21//24
f 18//25 17//26 27//26
f 21//18 20//17 29//27
f 30//28 21//24 31//29
f 16//22 21//24 30//28
f 17//30 16//30 30//30
f 17//26 30//26 27//26
f 7//31 9//32 33//33
f 34//34 21//18 29//27
f 31//29 21//24 34//35
f 27//36 30//36 35//36
f 18//37 27//37 24//37
f 9//32 19//38 39//39
f 20//17 11//40 29//27
f 30//41 31//41 35//41
f 40//42 27//43 35//44
f 25//45 24//45 41//45
f 41//46 36//46 25//46
f 42//47 36//48 41//49
f 33//33 9//32 39//39
f 10//9 7//11 43//50
f 43//50 23//20 10//9
f 44//51 31//51 34//51
f 35//44 31//52 44//53
f 22//54 45//54 28//54
f 33//55 39//56 46//57
f 47//58 34//34 48//59
f 34//60 47//61 44//62
f 24//63 49//64 41//65
f 49//66 24//67 40//68
f 24//69 27//69 40//69
f 37//70 32//71 50//72
f 19//73 51//74 39//56
f 7//31 33//33 43//75
f 11//40 26//76 29//27
f 40//42 35//44 44//53
f 41//65 49//64 52//77
f 53//78 42//79 41//80
f 54//81 36//48 42//47
f 36//82 54//82 45//82
f 55//83 28//84 45//85
f 50//86 28//87 55//88
f 50//89 32//89 28//89
f 38//90 37//70 50//72
f 19//73 38//91 51//74
f 48//59 34//34 29//27
f 44//62 47//61 40//92
f 46//57 39//56 51//74
f 57//93 26//93 56//93
f 52//77 53//94 41//65
f 53//78 54//95 42//79
f 54//95 53//78 55//96
f 45//85 54//97 55//83
f 38//91 50//86 58//98
f 51//74 38//91 58//98
f 33//55 46//57 59//99
f 43//100 33//101 60//102
f 61//103 26//104 57//105
f 29//106 26//104 61//103
f 50//86 55//88 58//98
f 48//59 29//107 62//108
f 40//68 47//109 49//66
f 63//110 52//77 49//64
f 53//94 52//77 63//110
f 62//111 29//112 61//113
f 55//88 53//94 65//114
f 66//115 55//88 65//114
f 58//98 55//88 66//115
f 33//116 59//116 67//116
f 57//117 56//118 68//119
f 65//114 53//94 63//110
f 59//99 46//57 51//74
f 69//120 33//120 67//120
f 60//121 33//121 69//121
f 68//119 56//118 64//122
f 70//123 47//58 48//59
f 71//124 47//125 70//126
f 49//64 47//125 71//124
f 65//127 63//128 72//129
f 57//130 68//130 73//130
f 48//59 62//108 70//123
f 63//110 49//64 71//124
f 74//131 58//98 66//115
f 59//99 51//74 75//132
f 67//133 59//133 76//133
f 72//134 63//110 77//135
f 58//98 74//136 78//137
f 51//74 58//98 78//137
f 76//138 59//99 75//132
f 61//103 57//105 80//139
f 62//111 61//113 80//140
f 72//129 77//141 82//142
f 70//143 62//143 81//144
f 63//110 71//124 83//145
f 65//127 72//129 82//142
f 65//127 82//142 84//146
f 51//74 78//137 75//132
f 77//135 63//110 83//145
f 76//147 75//147 85//147
f 79//148 67//148 76//148
f 66//149 65//149 84//149
f 66//115 84//150 86//151
f 86//151 74//131 66//115
f 78//137 74//136 86//152
f 75//153 78//154 87//155
f 85//156 75//156 88//156
f 78//154 86//157 87//155
f 88//158 75//158 87//158
f 79//159 76//159 89//159
