# Blender v2.79 (sub 0) OBJ File: ''
# www.blender.org
o foo.014_foo.016
v 94.164467 6.727535 -370.573944
v 98.094269 4.463101 -361.761261
v 97.571106 9.029881 -361.165802
v 100.261147 0.834787 -358.978485
v 99.056061 12.077461 -355.869354
v 99.602821 6.121342 -357.137817
v 103.260292 -0.883721 -356.107086
v 103.611549 3.235512 -352.690430
v 101.586456 6.756267 -352.543243
v 100.909752 10.217511 -351.219513
v 101.701492 16.226139 -349.730774
v 106.815712 -0.869304 -352.452209
v 108.413658 -1.972096 -349.091797
v 106.788513 3.624865 -347.688599
v 104.694778 7.923573 -346.109131
v 103.511940 18.668360 -345.866058
v 108.629822 2.569907 -342.295013
v 108.547646 -2.549698 -344.343140
v 107.751694 7.834490 -340.133820
v 105.125206 21.396139 -342.585358
v 105.929253 12.912074 -341.085724
v 107.946159 -7.703750 -341.304504
v 106.614166 23.686083 -340.051025
v 107.035553 -18.462358 -338.526764
v 108.465515 -26.052837 -338.356537
v 108.629860 -1.722980 -337.574127
v 110.083084 -7.004900 -334.826263
v 107.870842 24.557678 -337.560028
v 109.009560 -21.815954 -335.557312
v 108.998398 8.892654 -334.635773
v 109.523499 27.654976 -335.665375
v 108.463890 14.685543 -332.950562
v 109.855118 -12.804781 -333.689392
v 111.210167 -29.577793 -334.064697
v 108.827621 0.086695 -332.533875
v 110.295555 29.070234 -333.362122
v 111.142838 31.556078 -331.062622
v 111.745872 -32.622410 -332.819580
v 109.086266 21.959896 -329.911316
v 110.860641 -22.030390 -330.129456
v 108.552063 12.747824 -325.373352
v 109.925407 28.033922 -325.228485
v 108.758942 -11.294184 -324.694672
v 108.639313 -16.827082 -328.477509
v 111.142906 30.622046 -324.398193
v 114.468033 -34.739475 -329.607788
v 108.597183 -2.718477 -325.823151
v 113.574020 -28.108179 -327.405518
v 114.237885 35.577801 -326.574097
v 118.531914 -39.575188 -323.581451
v 107.074516 7.774793 -321.704956
v 107.857323 23.234987 -323.823578
v 109.296677 -21.514887 -322.401428
v 110.041229 -26.204914 -320.912170
v 116.883217 36.821674 -324.384308
v 116.425156 -33.838257 -323.103455
v 108.199974 -3.633147 -322.486511
v 109.710167 -2.715935 -325.062531
v 114.410545 37.165207 -320.883911
v 117.732437 39.441822 -321.375397
v 118.974411 -37.146912 -321.595306
v 120.949532 -41.253307 -320.416168
v 106.482872 19.033045 -318.284241
v 106.762833 -8.193801 -320.183746
v 108.411369 -6.751468 -321.456879
v 107.800301 1.788844 -321.234589
v 106.867088 27.421778 -316.074860
v 108.411423 -2.444798 -317.513153
v 111.665764 -31.233438 -318.407593
v 109.797600 33.167202 -320.193665
v 106.744225 1.239362 -317.132477
v 107.605934 -7.790376 -317.112274
v 106.546242 -15.853663 -318.379303
v 107.679916 -4.638857 -317.843719
v 109.256516 -0.198888 -316.059326
v 119.583504 41.161064 -319.997314
v 132.433716 -42.440876 -311.759613
v 105.569008 -4.819778 -316.776093
v 106.405022 6.703605 -315.871429
v 104.877106 11.388884 -316.100891
v 104.315033 16.095081 -317.041595
v 107.836731 -27.690466 -312.782867
v 115.019836 -36.370934 -317.079865
v 120.445435 42.362385 -318.374298
v 106.872444 -9.460881 -314.988342
v 104.947304 23.662544 -315.042480
v 106.675232 -21.980621 -314.401245
v 112.083115 39.726475 -310.811218
v 117.310295 42.355171 -315.068573
v 124.745071 43.820171 -317.239716
v 107.407143 8.582532 -311.537750
v 107.230980 1.604816 -313.504456
v 108.220116 1.066911 -314.153717
v 110.789085 -7.450596 -314.672302
v 115.505310 -39.087265 -313.252197
v 128.256042 46.890202 -314.562683
v 120.951935 44.446762 -314.629822
v 125.335152 45.016388 -314.489288
v 104.742287 13.262856 -313.426544
v 108.621986 -13.426749 -314.089722
v 106.462791 9.871885 -310.836761
v 107.257812 -0.243988 -314.400024
v 107.929688 -0.411956 -314.400024
v 104.932991 31.229374 -308.411469
v 108.604370 33.634457 -313.646820
v 111.160461 -12.330077 -315.034271
v 109.903526 -10.619064 -311.626984
v 109.100967 -3.561594 -311.697662
v 105.307892 18.561958 -311.070221
v 107.496239 -17.895905 -310.151428
v 107.621048 1.693431 -311.831238
v 108.560913 8.760488 -313.744476
v 109.682076 -13.978845 -308.635864
v 130.902847 49.522488 -311.327454
v 104.830170 23.806509 -308.020874
v 105.665352 13.587540 -312.378479
v 108.460808 -23.378780 -307.951660
v 109.420052 -1.829072 -308.272461
v 110.698601 -36.157959 -307.905060
v 109.483757 -14.607312 -308.709442
v 115.084885 43.435753 -308.042145
v 123.779266 46.399494 -308.547211
v 129.247833 47.829147 -308.467987
v 105.242188 12.773590 -310.837524
v 105.914062 12.773590 -310.462524
v 105.413452 12.898395 -308.604034
v 107.743988 -12.349386 -308.085602
v 107.851151 9.085115 -308.048737
v 107.459869 36.370190 -307.990601
v 110.149689 -9.323401 -308.561127
v 134.042587 52.219910 -308.521851
vn -0.9188 -0.1512 0.3646
vn -0.9158 -0.1549 0.3706
vn -0.9166 -0.1532 0.3694
vn -0.9223 -0.1520 0.3554
vn -0.6018 0.2255 0.7662
vn -0.6025 0.2270 0.7652
vn -0.8129 -0.3780 0.4430
vn -0.7694 -0.4412 0.4619
vn -0.7880 -0.4544 0.4155
vn -0.9114 -0.0770 0.4041
vn -0.9073 -0.2004 0.3697
vn -0.9378 -0.0942 0.3342
vn -0.9252 -0.2792 0.2571
vn -0.9356 -0.1219 0.3313
vn -0.7595 -0.3757 0.5311
vn -0.9129 0.0176 0.4079
vn -0.7856 -0.4687 0.4039
vn -0.7519 -0.5674 0.3357
vn -0.7810 -0.5995 0.1747
vn -0.7761 -0.3559 0.5206
vn -0.7917 -0.4063 0.4562
vn -0.8175 -0.3237 0.4764
vn -0.8520 -0.2426 0.4640
vn -0.7646 -0.4587 0.4526
vn -0.7018 -0.5205 0.4863
vn -0.7253 -0.5193 0.4519
vn -0.7837 -0.4501 0.4281
vn -0.9121 -0.3269 0.2474
vn -0.9275 -0.2635 0.2651
vn -0.8434 -0.3267 0.4266
vn -0.9996 0.0045 0.0288
vn -0.9997 0.0072 0.0221
vn -0.9998 0.0094 0.0167
vn -0.9095 0.0169 0.4154
vn -0.8957 -0.0073 0.4447
vn -0.9132 -0.0968 0.3958
vn -0.8851 -0.0023 0.4654
vn -0.8680 -0.2289 0.4406
vn -0.9722 0.0670 0.2243
vn -0.9835 0.0007 0.1807
vn -0.9934 0.1148 -0.0020
vn -0.9999 0.0118 0.0107
vn -0.9948 -0.0473 0.0904
vn -0.9028 0.1354 0.4081
vn -0.9035 0.1354 0.4066
vn -0.9868 -0.1199 -0.1090
vn -0.9956 -0.0804 0.0484
vn -0.9915 -0.0560 0.1174
vn -0.9736 -0.0288 0.2263
vn -0.9241 0.0389 0.3802
vn -0.9040 -0.2610 0.3386
vn -0.9527 -0.0258 0.3029
vn -0.8847 0.0448 0.4641
vn -0.9932 0.0458 0.1069
vn -0.9172 -0.0915 0.3879
vn -0.9556 -0.1602 0.2475
vn -0.9969 -0.0781 -0.0048
vn -0.9994 -0.0078 0.0331
vn -0.9992 0.0265 0.0297
vn -0.9999 0.0059 -0.0101
vn -0.8875 -0.1692 0.4286
vn -0.9108 -0.1867 0.3682
vn -0.9907 -0.1311 -0.0356
vn -0.9715 -0.2085 0.1130
vn -0.9632 0.1673 0.2105
vn -0.9866 0.0166 0.1624
vn -0.9747 0.1130 0.1926
vn -0.8848 0.4658 0.0104
vn -0.9783 -0.1345 0.1577
vn -0.9797 0.0006 -0.2002
vn -0.9854 0.0899 -0.1448
vn -0.9305 0.2754 0.2414
vn -0.9460 0.3241 -0.0018
vn -0.9936 0.0012 -0.1129
vn -0.9536 -0.0859 -0.2887
vn -0.9104 0.4098 0.0574
vn -0.8782 0.4577 -0.1388
vn -0.8194 0.4840 -0.3072
vn -0.6971 0.1629 0.6982
vn -0.9951 -0.0510 -0.0847
vn -0.9936 0.0004 -0.1133
vn -0.9875 0.1558 -0.0251
vn -0.8970 -0.2397 0.3713
vn -0.9051 -0.2359 0.3536
vn -0.8985 -0.2349 0.3708
vn -0.9110 -0.2353 0.3387
vn -0.8300 0.5524 0.0774
vn -0.9304 0.0066 -0.3666
vn -0.9594 0.1418 -0.2439
vn -0.9378 -0.3031 -0.1696
vn -0.9519 -0.2507 -0.1759
vn -0.9250 -0.3427 -0.1643
vn -0.9134 0.3200 -0.2514
vn -0.8150 -0.4972 -0.2976
vn -0.6564 0.6068 0.4483
vn -0.9234 -0.2272 0.3093
vn -0.9961 -0.0341 0.0814
vn -0.9742 -0.0969 -0.2036
vn -0.9818 -0.0893 -0.1678
vn -0.6329 0.5871 -0.5047
vn -0.6095 0.5876 -0.5322
vn -0.6151 0.6768 -0.4045
vn -0.8824 -0.3502 0.3141
vn -0.7573 -0.3253 0.5664
vn -0.6837 -0.2079 0.6995
vn -0.7025 -0.2351 0.6717
vn -0.8289 -0.2558 0.4975
vn -0.8871 0.0884 -0.4531
vn -0.8392 0.1481 -0.5233
vn -0.9735 0.0181 -0.2278
vn -0.8987 0.0540 -0.4352
vn -0.9221 0.0674 -0.3809
vn -0.7446 0.3487 -0.5692
vn -0.9963 -0.0471 -0.0726
vn -0.9398 -0.1071 -0.3246
vn -0.8788 -0.1443 -0.4549
vn -0.9082 0.3086 -0.2828
vn -0.9478 0.2137 -0.2366
vn -0.9580 0.1825 -0.2212
vn -0.9609 -0.2099 -0.1805
vn -0.7644 -0.5414 -0.3501
vn -0.7730 -0.5304 -0.3482
vn -0.8385 -0.4346 -0.3288
vn -0.6638 0.6257 -0.4098
vn -0.6966 -0.6190 -0.3627
vn -0.9846 -0.1251 -0.1223
vn -0.9988 -0.0126 -0.0473
vn -0.1172 -0.0919 -0.9888
vn -0.8983 -0.1407 -0.4163
vn -0.9380 -0.0549 -0.3423
vn 0.9974 0.0711 0.0105
vn -0.9941 -0.0879 0.0633
vn -0.2782 0.9446 0.1743
vn -0.2778 0.9448 0.1735
vn -0.2780 0.9447 0.1739
vn -0.9847 -0.1111 -0.1344
vn -0.9266 0.3348 -0.1714
vn -0.6952 0.4944 -0.5217
vn -0.5481 0.7012 -0.4560
vn -0.6161 -0.1198 0.7785
vn -0.9030 0.1026 -0.4173
vn -0.9838 -0.1552 -0.0897
vn -0.9353 -0.3131 -0.1648
vn 0.5795 0.3122 0.7528
vn 0.9166 -0.0412 0.3978
vn 0.6950 0.2260 0.6826
vn 0.9592 -0.1729 0.2238
vn -0.6791 0.2036 -0.7052
vn -0.9805 0.0908 -0.1744
vn -0.6258 0.7768 0.0697
vn -0.9248 -0.2404 -0.2947
vn -0.9146 -0.2626 -0.3074
vn -0.9195 -0.2425 -0.3092
vn -0.7950 -0.5058 -0.3350
vn -0.7134 -0.5708 -0.4064
vn -0.7432 -0.5740 -0.3438
vn -0.1829 -0.8903 -0.4170
vn -0.9498 -0.1664 -0.2651
vn -0.9763 -0.1482 -0.1578
vn -0.9826 -0.1414 -0.1201
vn -0.7410 0.2026 -0.6403
vn -0.7908 0.2505 -0.5584
vn -0.8352 0.2999 -0.4610
vn -0.9635 -0.1774 -0.2007
vn -0.9989 0.0067 0.0455
vn -0.9822 -0.0203 -0.1869
vn -0.9364 0.1456 0.3194
vn -0.7003 0.6591 -0.2742
vn -0.4353 0.8082 -0.3966
vn -0.4461 0.8007 -0.3998
vn -0.4300 0.8118 -0.3950
vn -0.4130 0.8231 -0.3899
vn -0.6028 -0.0607 0.7956
vn -0.6052 -0.0616 0.7937
vn -0.6049 -0.0630 0.7938
vn -0.8904 -0.3687 0.2668
vn -0.9023 -0.2781 0.3293
vn -0.8195 -0.5428 0.1837
vn -0.9855 -0.0939 0.1417
vn -0.5554 -0.7994 0.2289
vn -0.9206 0.2616 -0.2901
vn -0.8494 -0.4281 -0.3086
vn -0.8457 -0.4438 -0.2962
vn -0.4347 0.7747 0.4592
vn -0.9416 0.1639 0.2941
vn -0.6097 0.0227 0.7923
vn -0.8659 -0.0878 0.4925
vn -0.9601 -0.1602 0.2294
vn -0.5670 0.7575 -0.3236
vn -0.6357 0.6837 -0.3584
vn -0.6213 0.7149 -0.3208
vn -0.6282 0.6974 -0.3450
vn -0.1845 -0.9768 -0.1086
vn -0.3964 -0.8989 -0.1866
vn -0.1120 -0.8170 -0.5656
vn -0.1734 0.8703 -0.4610
vn -0.2940 0.8515 -0.4342
vn -0.3012 0.8499 -0.4324
vn -0.5284 0.8142 -0.2407
vn -0.9932 -0.1128 0.0290
vn -0.7038 0.2358 -0.6702
vn -0.8634 -0.2060 0.4605
vn -0.8141 -0.2392 0.5292
vn -0.9045 -0.1590 0.3957
vn -0.9320 -0.1316 0.3378
vn -0.7692 -0.6274 0.1210
vn -0.9216 0.1976 0.3342
vn -0.9866 -0.0825 0.1407
vn -0.2185 -0.8742 -0.4335
vn -0.9136 0.2217 -0.3408
vn -0.7036 0.6881 -0.1774
vn -0.7718 0.2490 -0.5851
vn -0.1568 0.1520 0.9759
vn -0.8129 0.5514 -0.1875
vn -0.9447 -0.0478 -0.3245
vn -0.9450 -0.2418 -0.2201
vn -0.1075 0.9199 -0.3770
vn -0.1159 0.9464 -0.3016
vn -0.1421 0.9406 -0.3082
vn -0.9882 0.0397 0.1479
vn -0.9977 -0.0204 0.0644
vn -0.9883 0.0440 0.1462
vn -0.9993 -0.0362 0.0030
vn -0.9842 -0.0148 0.1767
vn -0.9899 0.1034 0.0972
vn -0.9745 0.2227 -0.0258
vn -0.9646 -0.1262 0.2316
vn -0.4461 -0.7010 -0.5564
vn 0.1693 0.6773 0.7160
vn -0.1926 -0.7702 0.6081
vn -0.8709 0.0906 0.4831
vn -0.7675 0.1634 0.6199
vn -0.3407 0.9265 0.1600
vn -0.4206 0.8157 -0.3972
vn -0.9972 -0.0681 -0.0319
vn -0.6941 -0.2293 0.6824
vn -0.9603 -0.0978 0.2611
vn -0.9710 -0.1236 0.2045
vn -0.9610 -0.1173 0.2503
vn -0.8812 0.1487 -0.4487
vn -0.9838 -0.1054 0.1449
vn -0.9832 -0.1089 0.1465
vn -0.9831 -0.1092 0.1468
vn -0.8524 -0.5167 -0.0805
vn -0.6928 -0.7018 -0.1656
vn -0.9187 -0.1083 -0.3798
vn -0.9491 -0.1722 -0.2637
vn -0.6150 0.7265 -0.3065
vn -0.4539 0.8478 -0.2741
vn -0.1998 0.9415 -0.2715
vn -0.5881 0.8083 -0.0290
vn -0.5402 0.8405 -0.0416
vn -0.6562 0.7545 -0.0095
vn -0.7093 0.7048 0.0068
vn -0.5674 0.7822 0.2574
vn -0.8609 0.3344 -0.3834
vn -0.9557 -0.2616 0.1351
vn -0.9573 -0.1491 -0.2478
vn -0.2264 0.8856 0.4056
vn -0.9970 0.0144 0.0757
vn -0.9323 -0.1329 -0.3363
vn -0.9812 0.1042 -0.1622
vn -0.8020 0.5565 -0.2171
vn 0.9410 0.2458 -0.2324
vn -0.9421 -0.1202 0.3129
vn -0.9560 -0.0489 0.2894
vn -0.9917 -0.0110 0.1278
vn -0.9750 -0.0736 0.2097
vn -0.3268 0.9335 -0.1478
vn -0.2391 0.9300 -0.2791
vn -0.9998 0.0130 -0.0169
vn -0.8279 -0.4893 0.2742
vn -0.7412 -0.6447 0.1872
vn -0.7577 0.5143 -0.4018
vn -0.8193 0.4334 -0.3754
vn -0.7537 0.5193 -0.4028
vn -0.9541 -0.1461 0.2614
vn -0.6871 0.5898 -0.4243
vn -0.9919 0.1242 0.0271
vn -0.9858 -0.1108 0.1260
vn -0.6612 0.7118 -0.2368
vn -0.6743 0.7370 0.0461
vn -0.9962 -0.0495 -0.0710
vn -0.9600 -0.0591 0.2737
vn -0.9485 -0.1645 0.2707
vn -0.9845 -0.1014 0.1430
s 1
f 1//1 2//2 3//3
f 3//4 2//4 6//4
f 4//5 7//6 2//6
f 2//7 8//8 6//9
f 3//10 6//10 9//10
f 3//11 9//11 5//11
f 5//12 9//13 10//14
f 2//7 7//15 8//8
f 5//12 10//14 11//16
f 6//9 8//8 9//17
f 7//15 12//18 8//8
f 8//8 12//18 13//19
f 8//20 13//20 14//20
f 9//21 15//22 10//23
f 9//21 8//24 15//22
f 8//25 14//26 15//27
f 13//28 17//28 14//28
f 14//29 17//29 19//29
f 14//26 19//30 15//27
f 13//31 18//32 17//33
f 11//16 10//14 16//34
f 16//35 10//23 21//36
f 16//35 21//36 20//37
f 15//22 21//36 10//23
f 15//27 19//30 21//38
f 22//39 26//40 18//41
f 18//32 26//42 17//33
f 22//39 27//43 26//40
f 20//44 28//45 23//44
f 17//46 26//47 19//48
f 19//48 26//47 30//49
f 21//36 28//50 20//37
f 19//51 32//52 21//36
f 24//53 33//54 22//39
f 24//53 29//55 33//54
f 21//36 32//52 28//50
f 19//56 30//57 32//58
f 30//57 26//59 35//60
f 25//61 34//62 29//55
f 22//39 33//54 27//43
f 27//43 35//63 26//64
f 28//65 32//66 39//67
f 35//60 32//58 30//57
f 28//68 36//68 31//68
f 29//55 40//69 33//54
f 32//58 41//70 39//71
f 28//65 39//67 36//72
f 36//73 42//73 37//73
f 34//62 40//69 29//55
f 33//54 43//74 27//43
f 27//43 43//74 35//63
f 35//60 41//70 32//58
f 40//69 44//75 33//54
f 37//76 42//77 45//78
f 34//79 38//79 46//79
f 44//75 43//74 33//54
f 35//63 43//74 47//80
f 35//60 47//81 41//70
f 36//82 39//82 42//82
f 34//83 48//84 40//85
f 34//83 46//86 48//84
f 37//87 45//87 49//87
f 47//81 51//88 41//70
f 41//70 52//89 39//71
f 40//90 53//91 44//92
f 39//71 52//89 42//93
f 48//94 54//94 40//94
f 49//95 45//95 55//95
f 46//86 56//96 48//84
f 41//70 51//88 52//89
f 44//97 53//98 43//99
f 55//100 45//101 59//102
f 46//103 50//103 56//103
f 50//104 61//105 56//106
f 50//107 62//107 61//107
f 51//108 63//109 52//110
f 43//111 64//112 65//113
f 43//74 65//114 47//80
f 47//80 65//114 51//115
f 51//115 65//114 66//116
f 42//117 52//118 67//119
f 54//120 53//91 40//90
f 48//121 69//122 54//123
f 45//101 70//124 59//102
f 56//125 69//122 48//121
f 51//126 64//112 71//127
f 64//128 51//115 66//116
f 53//98 73//129 43//99
f 43//111 73//130 64//112
f 65//131 57//131 66//131
f 57//132 68//132 66//132
f 57//133 74//134 58//135
f 65//136 74//136 57//136
f 68//137 58//137 74//137
f 45//78 42//77 70//138
f 55//139 59//139 60//139
f 56//106 61//105 77//140
f 78//141 71//127 64//112
f 51//126 79//142 80//143
f 51//126 71//127 79//142
f 72//144 66//145 78//146
f 78//146 66//145 71//147
f 51//108 81//148 63//109
f 63//149 67//119 52//118
f 65//150 64//150 72//150
f 54//151 82//152 53//153
f 69//154 56//155 83//156
f 56//157 77//157 83//157
f 51//158 80//159 81//160
f 63//161 86//162 67//163
f 53//153 87//164 73//165
f 65//166 72//166 74//166
f 66//167 68//167 75//167
f 70//124 88//168 59//102
f 76//169 60//170 89//171
f 84//172 76//169 89//171
f 62//173 77//174 61//175
f 64//112 73//130 78//141
f 80//176 79//177 91//178
f 71//127 92//179 79//142
f 53//153 82//152 87//164
f 71//180 75//180 93//180
f 42//181 67//181 70//181
f 54//182 69//154 82//183
f 72//184 85//184 94//184
f 68//185 72//185 75//185
f 72//186 94//187 75//188
f 59//102 88//168 60//189
f 60//190 88//191 89//192
f 77//193 95//194 83//195
f 90//196 84//197 97//198
f 90//199 98//199 96//199
f 80//159 99//200 81//160
f 63//109 81//148 86//201
f 73//202 100//203 85//204
f 73//202 85//204 78//205
f 80//176 91//178 101//206
f 73//165 87//164 100//207
f 71//208 102//208 92//208
f 103//209 102//209 71//209
f 70//210 67//210 104//210
f 70//211 104//211 105//211
f 75//212 103//212 93//212
f 100//213 94//213 85//213
f 70//124 105//214 88//168
f 94//215 106//215 107//215
f 94//187 108//216 75//188
f 83//156 95//194 69//154
f 90//217 97//218 98//219
f 81//220 99//220 109//220
f 86//221 81//222 109//223
f 87//224 110//225 100//226
f 102//227 111//227 92//227
f 75//228 108//228 102//228
f 102//229 108//229 103//229
f 102//230 103//230 111//230
f 103//231 108//231 93//231
f 92//232 112//232 79//232
f 106//233 100//233 113//233
f 89//234 97//198 84//197
f 109//223 115//235 86//221
f 99//236 116//236 109//236
f 80//237 101//237 116//237
f 116//238 101//238 109//238
f 87//224 117//239 110//225
f 92//240 91//240 112//240
f 108//241 118//242 93//243
f 93//244 118//244 111//244
f 69//154 119//245 82//183
f 94//246 107//246 108//246
f 106//247 113//247 107//247
f 95//194 119//245 69//154
f 89//192 88//191 121//248
f 97//249 89//249 121//249
f 98//219 97//218 122//250
f 96//251 98//252 123//253
f 96//251 123//253 114//254
f 99//255 124//255 116//255
f 86//162 104//256 67//163
f 99//257 80//257 124//257
f 126//258 125//258 101//258
f 125//259 116//259 124//259
f 109//260 124//260 126//260
f 101//261 125//261 109//261
f 110//262 127//262 100//262
f 100//263 127//263 107//263
f 111//264 118//265 92//266
f 91//267 92//266 128//268
f 97//269 121//269 122//269
f 98//219 122//250 123//270
f 86//271 115//271 104//271
f 101//272 128//272 126//272
f 91//178 128//273 101//206
f 105//274 104//275 129//276
f 82//277 117//239 87//224
f 105//274 129//276 88//278
f 107//279 120//279 130//279
f 92//266 118//265 128//268
f 107//280 130//280 108//280
f 88//281 129//281 121//281
f 95//194 77//193 119//245
f 114//282 123//282 131//282
f 126//283 115//235 109//223
f 110//284 117//284 127//284
f 82//277 119//285 117//239
f 108//241 130//286 118//242
