# Blender v2.79 (sub 0) OBJ File: ''
# www.blender.org
o foo.039_foo.041
v 250.072525 56.486923 -679.711243
v 251.818832 45.950790 -680.729614
v 247.381088 69.951424 -678.516541
v 251.959671 51.102058 -678.775391
v 248.920044 64.861870 -677.161011
v 250.301895 60.977215 -676.554993
v 250.491562 11.641242 -674.936951
v 251.674530 17.301287 -671.919678
v 253.967865 40.818893 -675.093689
v 252.906647 24.365328 -670.453857
v 252.952820 45.756489 -668.370667
v 252.429565 53.211346 -665.451904
v 249.848221 61.990490 -662.744080
v 242.779160 4.022258 -660.483215
v 247.072266 71.712685 -660.102722
v 246.621353 12.748750 -659.225830
v 245.973297 9.596308 -663.659546
v 248.893555 66.565269 -663.500671
v 249.841873 58.172672 -660.854980
v 249.141388 17.922878 -660.794373
v 252.828232 29.878441 -663.523621
v 239.589294 -2.075271 -663.076477
v 250.876328 23.135597 -661.917847
v 248.186234 65.178825 -659.270081
v 251.306641 42.376076 -658.581848
v 251.193848 28.644459 -658.530640
v 249.901062 54.028557 -659.234863
v 250.368576 47.172691 -657.023193
v 239.955826 1.602541 -647.763000
v 237.657669 -4.563219 -654.705688
v 248.293671 68.546265 -655.239441
v 248.825470 22.835665 -645.971069
v 249.842468 62.249340 -654.814758
v 249.931702 24.898436 -650.081604
v 243.444992 7.470194 -648.867126
v 251.265991 54.779224 -652.511658
v 250.521652 31.421467 -644.827515
v 244.606979 10.888775 -644.476440
v 250.960312 38.281139 -643.392334
v 246.617325 15.974662 -645.913147
v 249.339844 65.741623 -647.353699
v 250.262939 59.795864 -643.913940
v 236.357315 -2.766534 -641.931091
v 248.058350 69.503723 -644.196411
v 250.692108 51.975838 -641.995972
v 234.742630 -7.378204 -640.877808
v 242.484680 7.917304 -638.043457
v 247.289871 19.188627 -641.487305
v 249.224869 29.681475 -633.776306
v 238.742172 0.794761 -635.411194
v 247.160797 68.057198 -634.049866
v 249.294815 56.871948 -636.147339
v 250.121429 38.386066 -634.695129
v 244.545624 11.916695 -632.223267
v 247.995575 22.646936 -630.504761
v 248.169022 62.083344 -633.532288
v 240.687851 4.348689 -629.885071
v 245.525070 15.245684 -623.000366
v 236.886246 -2.108200 -624.839355
v 248.363617 53.391384 -627.821228
v 235.526733 -8.552679 -623.842163
v 247.779175 59.462940 -627.888367
v 248.766617 47.020641 -625.586060
v 246.626465 18.393692 -624.971924
v 245.952332 67.614998 -624.870728
v 242.706223 8.576376 -619.852661
v 248.332260 29.922081 -619.561523
v 236.003418 -3.622721 -613.459961
v 246.883438 58.493946 -622.026428
v 247.500427 30.511269 -607.985107
v 244.595383 13.912310 -611.065796
v 244.084259 70.829155 -618.159424
v 238.564987 -0.434977 -603.289551
v 245.938950 61.862278 -616.949219
v 246.787537 25.966021 -603.259644
v 247.668594 44.257362 -611.812744
v 241.249741 4.867831 -602.440857
v 244.493576 63.034958 -608.687988
v 246.538116 52.354729 -611.087646
v 243.100632 67.506393 -606.888611
v 246.199509 22.630142 -603.243286
v 236.343872 -4.711533 -600.849609
v 243.707138 12.219539 -601.422180
v 245.642426 55.282867 -608.352417
v 234.830978 -8.963046 -600.300659
v 245.177078 17.623468 -603.486023
v 246.725540 42.265991 -602.031555
v 240.750504 71.790718 -600.860596
v 244.410080 56.715973 -600.510071
v 241.552292 68.134949 -600.955078
v 242.617249 7.788418 -596.367615
v 245.913849 47.684875 -602.444519
v 243.421722 61.432739 -598.381775
v 245.260757 52.823578 -598.515381
v 242.370972 66.879631 -593.628296
v 246.547501 20.537781 -592.348328
v 246.847916 45.214771 -595.891052
v 239.643372 0.842088 -596.075439
v 245.590652 16.042500 -590.887695
v 246.779999 51.610435 -587.248413
v 237.947372 -5.986070 -588.641113
v 240.886932 1.721025 -587.440613
v 247.671585 25.872927 -590.633118
v 247.471985 38.734314 -593.629517
v 243.661026 63.614670 -586.393494
v 243.496948 7.413764 -581.247192
v 244.830963 10.689932 -580.426392
v 245.579758 57.904335 -585.606812
v 239.353638 -7.055784 -579.599609
v 242.684830 6.106817 -586.557007
v 248.238480 37.372559 -586.896729
v 248.528976 29.152609 -584.089111
vn 0.9985 0.0399 0.0388
vn 0.9956 0.0067 -0.0935
vn 0.9833 0.1609 -0.0848
vn 0.9482 0.3068 -0.0822
vn 0.9449 0.3166 -0.0835
vn 0.9930 0.0933 0.0729
vn 0.9418 0.3360 0.0063
vn 0.9511 0.3088 0.0003
vn 0.9741 0.2255 -0.0189
vn 0.9475 0.2948 0.1236
vn 0.9871 0.0565 -0.1495
vn 0.9864 0.1339 -0.0954
vn 0.8278 -0.5073 0.2397
vn 0.9255 -0.3600 0.1178
vn 0.8570 -0.4709 0.2095
vn 0.9591 0.2812 -0.0332
vn 0.9547 0.2961 -0.0294
vn 0.9562 0.2845 0.0684
vn 0.9134 -0.3230 0.2478
vn 0.9289 -0.2836 0.2384
vn 0.9087 -0.3865 0.1579
vn 0.9797 0.1524 0.1300
vn 0.9866 -0.0179 0.1621
vn 0.9794 0.2006 -0.0231
vn 0.9500 -0.2131 0.2282
vn 0.9185 -0.3511 0.1820
vn 0.9999 -0.0035 0.0141
vn 0.9884 0.0111 0.1512
vn 0.9791 -0.0488 0.1974
vn 0.9560 0.2802 0.0873
vn 0.9537 -0.2299 0.1937
vn 0.9498 -0.2227 0.2196
vn 0.9853 0.0746 0.1540
vn 0.9994 0.0141 0.0318
vn 0.9823 0.0817 0.1685
vn 0.9483 -0.2856 0.1388
vn 0.9437 -0.2742 0.1850
vn 0.9578 -0.2477 0.1455
vn 0.9430 0.2356 0.2349
vn 0.9896 0.0484 0.1352
vn 0.9802 -0.0534 0.1907
vn 0.9712 0.0984 0.2169
vn 0.9197 0.1759 0.3509
vn 0.9968 0.0500 0.0618
vn 0.8641 -0.4937 0.0979
vn 0.8636 -0.4946 0.0977
vn 0.8639 -0.4941 0.0978
vn 0.9560 0.1913 0.2225
vn 0.9386 0.1517 0.3098
vn 0.8902 -0.4447 0.0993
vn 0.9007 -0.4269 0.0810
vn 0.8675 -0.4775 0.1394
vn 0.9777 0.1476 -0.1494
vn 0.9578 -0.2702 0.0984
vn 0.9999 0.0113 -0.0077
vn 0.9478 0.2643 -0.1785
vn 0.9880 -0.1246 0.0912
vn 0.9713 -0.2148 0.1021
vn 0.8847 -0.4583 0.0853
vn 0.9775 0.0550 -0.2036
vn 0.9948 0.0708 -0.0735
vn 0.9922 -0.1031 0.0698
vn 0.9003 -0.4252 0.0928
vn 0.9360 -0.3417 0.0847
vn 0.9702 0.1200 -0.2104
vn 0.9982 -0.0328 0.0506
vn 0.9376 -0.3278 0.1161
vn 0.9453 -0.3032 0.1206
vn 0.9911 0.0882 -0.1001
vn 0.9876 0.1335 -0.0825
vn 0.9733 0.2253 0.0436
vn 0.9821 0.1885 0.0046
vn 0.9903 0.1097 0.0850
vn 0.8547 -0.4949 0.1566
vn 0.9263 0.3614 -0.1067
vn 0.8634 -0.4951 0.0975
vn 0.9885 0.1511 -0.0041
vn 0.9562 0.2429 0.1633
vn 0.9920 0.0506 0.1159
vn 0.9346 -0.3457 0.0840
vn 0.8751 -0.4741 0.0972
vn 0.8872 -0.4539 0.0832
vn 0.8723 -0.4879 0.0315
vn 0.9581 -0.2798 0.0606
vn 0.9493 -0.3049 0.0771
vn 0.9636 -0.2632 0.0474
vn 0.9695 0.2241 0.0997
vn 0.8562 -0.5128 0.0629
vn 0.9902 -0.1104 0.0850
vn 0.8654 -0.5010 0.0095
vn 0.8384 -0.5448 0.0170
vn 0.9729 0.1892 0.1328
vn 0.9886 -0.0322 0.1474
vn 0.9327 -0.3589 0.0348
vn 0.9325 -0.3595 0.0353
vn 0.9306 -0.3646 0.0319
vn 0.9428 -0.3308 0.0414
vn 0.9762 -0.2107 0.0507
vn 0.9817 0.0810 0.1725
vn 0.9794 0.1664 0.1145
vn 0.9765 0.1753 0.1250
vn 0.8921 -0.4519 0.0034
vn 0.9306 -0.3646 0.0328
vn 0.9425 -0.3337 -0.0163
vn 0.8795 -0.4760 -0.0011
vn 0.9876 0.0720 0.1394
vn 0.9894 0.0796 0.1211
vn 0.9803 0.1442 0.1347
vn 0.9786 0.1523 0.1383
vn 0.9777 0.1396 0.1570
vn 0.9951 0.0490 0.0861
vn 0.9756 -0.2082 0.0693
vn 0.9702 -0.2407 0.0274
vn 0.9748 0.1764 0.1368
vn 0.9839 0.0964 0.1503
vn 0.9259 -0.3759 0.0362
vn 0.9239 -0.3810 0.0345
vn 0.9252 -0.3778 0.0356
vn 0.9500 -0.3102 0.0354
vn 0.9520 -0.3013 0.0533
vn 0.9467 -0.3190 0.0457
vn 0.9743 0.1593 0.1594
vn 0.9946 -0.0785 0.0673
vn 0.9488 -0.3155 -0.0166
vn 0.9850 -0.1690 0.0357
vn 0.9103 -0.4139 -0.0076
vn 0.8243 -0.5661 0.0105
vn 0.9790 0.1346 0.1530
vn 0.9981 -0.0525 0.0327
vn 0.9815 0.1261 0.1441
vn 0.9313 -0.3627 0.0320
vn 0.9646 -0.2599 0.0446
vn 0.8769 -0.4805 -0.0151
vn 0.9872 0.1264 0.0971
vn 0.9729 0.1911 0.1302
vn 0.9798 0.1554 0.1261
vn 0.9821 -0.1864 -0.0260
vn 0.9970 0.0149 0.0765
vn 0.9232 -0.3827 0.0339
vn 0.9180 -0.3961 -0.0184
vn 0.9593 0.2363 0.1545
vn 0.9734 0.1733 0.1496
vn 0.9818 0.1434 0.1245
vn 0.9865 0.1243 0.1064
vn 0.9896 0.0933 0.1094
vn 0.9787 -0.2047 -0.0125
vn 0.9989 -0.0355 -0.0299
vn 0.9485 -0.3166 0.0110
vn 0.9394 -0.3415 0.0299
vn 0.9614 -0.2742 -0.0221
vn 0.9759 0.1552 0.1534
vn 0.9798 0.1434 0.1391
vn 0.9593 0.2370 0.1536
vn 0.9590 0.2384 0.1531
vn 0.9591 0.2368 0.1551
vn 0.9773 -0.2114 -0.0103
vn 0.9844 -0.1756 -0.0065
vn 0.9971 0.0724 0.0213
vn 0.8928 -0.4504 -0.0098
vn 0.9760 0.2117 0.0509
vn 0.9760 0.1798 0.1230
vn 0.9804 0.1508 0.1265
vn 0.9540 -0.2955 -0.0505
vn 0.9917 0.0993 0.0813
vn 0.9649 -0.2624 0.0001
vn 0.9889 0.1486 -0.0018
vn 0.9751 0.1579 0.1558
vn 0.9855 0.1524 0.0744
vn 0.9345 -0.3533 -0.0426
vn 0.9663 0.2190 0.1352
vn 0.9600 0.2436 0.1377
vn 0.9773 0.2108 0.0194
vn 0.9793 0.2004 -0.0277
vn 0.9949 0.0814 0.0589
vn 0.8697 -0.4892 -0.0657
vn 0.9807 0.1936 0.0263
vn 0.9693 0.2362 -0.0677
vn 0.9716 0.2262 -0.0698
vn 0.9739 0.2155 -0.0719
vn 0.9197 0.3351 0.2045
vn 0.9743 -0.2185 -0.0538
vn 0.9861 0.1411 -0.0874
vn 0.9307 -0.3579 -0.0758
vn 0.8907 -0.4445 -0.0949
vn 0.8943 -0.4440 -0.0551
vn 0.9690 -0.2407 -0.0555
vn 0.9681 0.2423 -0.0637
vn 0.9827 -0.1735 -0.0647
vn 0.9926 0.0994 -0.0698
vn 0.9824 0.1597 -0.0972
vn 0.9788 0.1790 -0.0993
vn 0.9015 -0.4159 -0.1196
vn 0.8338 -0.5269 -0.1645
vn 0.8950 -0.4351 -0.0979
vn 0.8773 -0.4736 -0.0781
vn 0.9495 -0.2965 -0.1027
vn 0.9931 -0.1078 -0.0466
vn 0.9977 0.0567 -0.0377
vn 0.9311 -0.3593 -0.0637
vn 0.9682 0.2421 -0.0634
vn 0.9501 -0.3054 -0.0628
vn 0.9551 -0.2873 -0.0721
vn 0.9736 0.2033 -0.1041
vn 0.9803 -0.1837 -0.0727
vn 0.9237 -0.3491 -0.1578
vn 0.9244 -0.3476 -0.1569
vn 0.9301 -0.3590 -0.0779
vn 0.9300 -0.3596 -0.0760
vn 0.9648 0.2452 -0.0953
vn 0.9816 0.1682 -0.0905
vn 0.9704 0.2153 -0.1096
vn 0.8859 -0.4241 -0.1881
vn 0.9276 -0.3428 -0.1486
vn 0.9420 -0.3295 -0.0630
vn 0.9685 -0.2436 -0.0523
vn 0.9917 -0.0090 -0.1279
vn 0.9922 -0.0053 -0.1243
vn 0.9920 -0.0106 -0.1254
vn 0.9279 -0.3664 -0.0692
s 1
f 11//1 2//2 4//3
f 9//4 2//4 11//4
f 4//3 1//5 12//6
f 6//7 5//8 13//9
f 12//10 1//11 6//12
f 7//13 16//14 17//15
f 5//16 3//17 18//18
f 7//19 8//20 16//21
f 12//10 6//12 19//22
f 10//23 9//23 11//23
f 11//1 4//3 12//6
f 13//9 5//8 18//24
f 8//20 10//25 20//26
f 10//27 11//28 21//29
f 18//18 3//17 15//30
f 10//31 21//29 23//32
f 19//33 6//34 13//35
f 20//36 10//37 23//38
f 13//39 18//39 24//39
f 25//40 11//1 12//6
f 21//29 11//28 26//41
f 16//21 8//20 20//26
f 12//10 19//22 27//42
f 28//43 12//43 27//43
f 11//28 25//40 26//41
f 12//6 28//44 25//40
f 22//45 14//46 29//47
f 18//18 15//30 24//48
f 13//35 24//49 19//33
f 23//32 21//29 26//41
f 30//50 22//51 29//52
f 24//53 15//53 31//53
f 20//36 23//38 32//54
f 27//42 19//22 33//55
f 19//56 24//56 33//56
f 23//38 26//57 34//58
f 14//59 17//59 35//59
f 32//54 23//38 34//58
f 28//44 27//60 36//61
f 34//58 26//57 37//62
f 35//63 17//63 38//63
f 17//15 16//14 38//64
f 36//61 27//60 33//65
f 26//41 25//40 37//62
f 25//40 28//44 39//66
f 16//21 20//26 40//67
f 40//67 20//26 32//68
f 24//69 31//70 41//71
f 36//61 33//72 42//73
f 37//62 25//40 39//66
f 39//66 28//44 36//61
f 43//74 30//50 29//52
f 41//75 33//75 24//75
f 14//46 35//76 29//47
f 33//77 41//71 42//78
f 45//79 36//61 42//73
f 16//14 40//80 38//64
f 39//66 36//61 45//79
f 35//81 38//82 47//83
f 40//84 32//85 48//86
f 41//71 31//70 44//87
f 29//88 35//81 47//83
f 32//54 34//58 49//89
f 43//90 29//88 50//91
f 52//92 41//71 44//87
f 42//78 41//71 52//92
f 34//58 37//62 49//89
f 37//62 39//66 53//93
f 38//94 40//95 54//96
f 48//97 32//54 55//98
f 45//79 42//73 52//99
f 53//93 39//66 45//79
f 56//100 44//87 51//101
f 52//92 44//87 56//100
f 29//88 47//83 57//102
f 54//96 40//95 58//103
f 37//62 53//93 49//89
f 46//104 43//90 59//105
f 50//91 29//88 57//102
f 53//93 45//79 52//99
f 43//90 50//91 59//105
f 55//98 32//54 49//89
f 53//93 52//106 60//107
f 52//108 56//109 62//110
f 63//111 53//93 60//107
f 48//97 55//98 64//112
f 40//84 48//86 64//113
f 56//100 51//101 65//114
f 60//107 52//106 62//115
f 38//116 54//117 66//118
f 40//119 64//120 58//121
f 62//110 56//109 65//122
f 55//98 49//89 67//123
f 49//89 53//93 63//111
f 68//124 61//125 59//105
f 57//102 47//83 66//126
f 47//83 38//82 66//127
f 69//128 62//110 65//122
f 64//112 55//98 70//129
f 60//130 62//110 69//128
f 70//129 55//98 67//123
f 54//131 58//121 71//132
f 50//91 57//102 73//133
f 69//134 65//135 74//136
f 64//112 70//129 75//137
f 49//89 63//111 76//138
f 59//105 50//91 73//133
f 66//118 54//117 71//139
f 63//111 60//107 76//138
f 57//102 66//126 77//140
f 65//135 72//141 78//142
f 76//143 60//130 69//128
f 69//134 74//136 79//144
f 76//145 69//134 79//144
f 67//123 49//89 76//138
f 74//136 65//135 78//142
f 58//121 64//120 81//146
f 61//125 68//124 82//147
f 66//148 71//149 83//150
f 79//151 74//136 84//152
f 70//129 67//123 76//138
f 78//153 72//154 80//155
f 71//132 58//121 86//156
f 81//157 64//112 75//137
f 87//158 76//145 79//144
f 73//133 57//102 77//159
f 84//152 74//136 78//142
f 68//124 59//105 73//133
f 89//160 84//161 78//162
f 58//121 81//146 86//156
f 66//148 83//150 91//163
f 92//164 79//151 84//152
f 71//149 86//165 83//150
f 87//166 79//167 92//168
f 76//145 87//158 70//129
f 77//140 66//126 91//169
f 78//170 80//171 93//172
f 94//173 84//161 89//160
f 92//164 84//152 94//174
f 82//175 68//175 73//175
f 89//176 78//170 93//172
f 95//177 90//178 88//179
f 93//180 80//180 90//180
f 86//156 81//146 96//181
f 97//182 87//166 92//168
f 98//183 73//184 77//185
f 86//156 96//181 99//186
f 93//187 90//178 95//177
f 81//157 75//137 96//188
f 97//189 92//190 100//191
f 101//192 82//193 73//184
f 101//192 73//184 98//183
f 98//194 77//195 102//196
f 75//137 70//129 103//197
f 103//197 70//129 104//198
f 70//129 87//158 104//198
f 87//158 97//189 104//198
f 77//140 91//169 102//199
f 93//187 95//177 105//200
f 91//163 83//150 106//201
f 83//150 86//165 107//202
f 92//203 94//203 108//203
f 96//204 75//137 103//197
f 85//205 82//206 101//205
f 106//207 83//208 107//208
f 89//176 93//172 108//209
f 94//173 89//160 108//210
f 100//191 92//190 108//211
f 101//212 98//194 109//213
f 110//214 91//214 106//214
f 86//156 99//186 107//215
f 104//198 97//189 100//191
f 112//216 103//217 111//218
f 102//199 91//169 110//219
f 109//213 98//194 102//196
f 107//215 99//186 96//181
