# Blender v2.79 (sub 0) OBJ File: ''
# www.blender.org
o foo.005_foo.007
v 61.310085 -71.165497 -658.325439
v 63.775364 -79.202751 -651.343811
v 62.471516 -76.672264 -645.524475
v 96.139595 -120.517166 -647.419434
v 64.811119 -81.973923 -644.220093
v 73.339943 -95.934540 -642.031433
v 60.187355 -71.251663 -638.342834
v 67.177841 -86.420456 -643.331787
v 77.362755 -101.384201 -641.955322
v 94.679581 -119.844246 -637.965698
v 70.080467 -91.734779 -633.910522
v 66.034325 -84.976204 -632.256165
v 86.301842 -111.124512 -641.336670
v 61.457390 -75.100281 -634.834167
v 131.253189 -142.586472 -638.742920
v 64.232307 -81.781418 -627.816406
v 125.920082 -141.156204 -616.128967
v 71.995102 -94.711769 -631.630859
v 80.909378 -105.820984 -634.744934
v 90.218643 -116.773338 -631.782715
v 99.346756 -124.677773 -634.335632
v 113.437004 -135.042847 -628.640686
v 85.603546 -112.281227 -629.966858
v 108.363251 -132.293747 -621.886536
v 121.328789 -139.010696 -629.566101
v 76.105614 -101.229065 -627.681885
v 97.210777 -123.495407 -627.575073
v 62.256901 -79.558998 -616.692078
v 68.536659 -89.900826 -628.028870
v 66.362267 -87.550751 -620.140381
v 81.076698 -108.194275 -625.250427
v 116.441795 -137.078522 -618.130493
v 64.121498 -83.298958 -617.387573
v 70.208916 -94.563599 -618.836243
v 60.967171 -75.299080 -617.680420
v 73.140221 -98.752441 -621.255859
v 96.723389 -123.788689 -617.250183
v 91.141953 -118.753693 -619.254700
v 104.531563 -129.719574 -616.548584
v 83.765564 -111.907707 -618.842102
v 76.602974 -104.842163 -615.448486
v 89.926300 -118.330009 -608.811584
v 59.254250 -73.801750 -605.455139
v 101.416710 -127.665413 -609.035278
v 112.357529 -134.828354 -602.329163
v 67.007629 -93.101585 -607.462036
v 70.331322 -99.158592 -603.477173
v 130.680466 -143.087906 -600.811890
v 72.630287 -101.573051 -607.309448
v 121.526634 -139.558945 -607.141052
v 125.768158 -140.976700 -579.293640
v 86.521675 -115.573868 -605.416992
v 61.383884 -84.359489 -594.438721
v 60.379158 -79.466194 -601.462219
v 94.978836 -122.788658 -603.641235
v 119.329132 -138.320770 -584.710388
v 65.553276 -92.236870 -598.502502
v 80.619240 -110.409035 -598.325317
v 127.028114 -141.669785 -587.974243
v 63.079044 -87.502266 -598.795776
v 90.967308 -119.378639 -587.447998
v 58.587135 -75.794312 -584.503052
v 75.341942 -105.059303 -603.644714
v 97.512993 -125.069672 -595.012390
v 101.174126 -127.542755 -585.417603
v 108.460159 -132.674667 -601.203003
v 113.731125 -135.297180 -582.950439
v 67.709976 -96.017525 -596.931885
v 71.577690 -101.637344 -587.358337
v 79.635345 -109.344505 -583.584045
v 105.053963 -129.971115 -582.651306
v 108.852936 -132.619720 -586.668152
v 87.688309 -116.476303 -580.291199
v 64.135796 -89.978287 -584.090271
v 122.340691 -139.409546 -572.974609
v 60.433514 -78.739731 -576.794861
v 68.819229 -97.307137 -583.536133
v 92.506073 -120.108215 -574.624939
v 118.269508 -137.484970 -570.083313
v 67.224327 -94.391663 -580.704895
v 62.529884 -85.829437 -580.904541
v 74.992607 -102.552666 -575.003662
v 95.394417 -121.745781 -567.544922
v 108.299088 -131.988876 -572.403992
v 71.491096 -98.662468 -575.405273
v 79.072800 -106.914810 -573.798218
v 113.337135 -134.701645 -570.389160
v 68.279243 -91.128738 -567.448181
v 59.360096 -73.275612 -573.075378
v 101.954605 -127.271904 -569.871460
v 65.894447 -84.405594 -563.075500
v 106.456146 -129.819412 -564.377625
v 116.734116 -136.103058 -563.028992
v 124.007851 -139.697662 -564.143921
v 84.580795 -111.286087 -567.564026
v 71.975861 -95.973694 -566.768433
v 99.358643 -124.045464 -559.687805
v 102.622543 -126.768059 -562.355591
v 65.164398 -78.213936 -558.639099
v 81.602600 -106.123123 -562.675964
v 114.972687 -134.509750 -556.527527
v 79.515564 -101.496910 -556.546265
v 75.986710 -96.687775 -555.153320
v 73.805367 -92.502007 -553.004822
v 88.768791 -114.184029 -560.616333
v 94.852875 -120.034698 -559.629700
v 110.037689 -131.338257 -554.848328
v 104.924675 -127.817223 -555.793640
v 119.774147 -137.130508 -557.200562
v 128.159409 -140.034988 -543.949890
v 71.032982 -86.949982 -552.079895
v 88.694778 -111.844048 -553.155273
v 123.094894 -138.352554 -550.302124
v 92.963631 -116.558159 -551.177002
v 84.342857 -106.611282 -553.607117
v 115.400375 -133.720840 -541.147949
v 98.008286 -121.442268 -544.876404
v 103.143730 -126.009872 -546.295044
v 79.943123 -99.810043 -548.091919
v 84.917213 -105.684288 -540.296387
v 106.150871 -128.371124 -541.840881
v 120.131264 -136.591797 -547.279480
v 91.830688 -114.573120 -544.432373
v 81.642372 -100.970261 -540.310486
v 111.585907 -131.563385 -539.431458
v 118.781708 -135.479523 -536.660767
v 88.471161 -110.194595 -540.283203
v 98.038902 -121.525505 -513.054749
v 122.096764 -136.686951 -533.270935
v 124.413788 -138.157486 -538.915771
v 99.239510 -121.307205 -524.903015
v 110.018822 -129.952087 -526.210938
v 93.002182 -115.650917 -521.771240
v 105.569069 -126.689369 -528.073364
v 86.272346 -107.718781 -522.938599
v 134.739075 -139.455780 -525.764282
v 91.259071 69.556030 -385.653442
v 91.983841 70.879669 -383.984070
v 92.180809 70.787849 -380.495789
vn -0.8743 -0.4844 -0.0321
vn -0.8830 -0.4686 -0.0276
vn -0.9014 -0.4321 -0.0277
vn -0.9481 -0.3149 -0.0451
vn -0.9415 -0.3349 -0.0383
vn -0.9439 -0.3267 -0.0488
vn -0.9344 -0.3528 -0.0487
vn -0.9113 -0.4109 -0.0273
vn -0.8901 -0.4550 -0.0261
vn -0.8167 -0.5736 -0.0631
vn -0.8301 -0.5561 -0.0420
vn -0.8180 -0.5713 -0.0673
vn -0.7258 -0.6771 -0.1211
vn -0.6717 -0.7309 -0.1207
vn -0.6891 -0.7179 -0.0986
vn -0.6487 -0.7567 -0.0810
vn -0.6007 -0.7928 -0.1030
vn -0.6927 -0.7181 -0.0664
vn -0.7253 -0.6814 -0.0977
vn -0.7642 -0.6317 -0.1302
vn -0.5892 -0.8069 -0.0420
vn -0.8037 -0.5919 -0.0606
vn -0.8027 -0.5932 -0.0612
vn -0.8025 -0.5933 -0.0642
vn -0.6137 -0.7876 -0.0561
vn -0.9021 -0.4287 -0.0496
vn -0.8452 -0.5315 -0.0561
vn -0.8708 -0.4872 -0.0663
vn -0.7313 -0.6799 -0.0547
vn -0.7317 -0.6794 -0.0545
vn -0.7325 -0.6784 -0.0571
vn -0.8583 -0.5054 -0.0882
vn -0.8729 -0.4804 -0.0847
vn -0.8847 -0.4603 -0.0739
vn -0.8331 -0.5514 -0.0429
vn -0.7893 -0.5973 -0.1419
vn -0.7442 -0.6564 -0.1238
vn -0.6566 -0.7472 -0.1026
vn -0.7888 -0.6071 -0.0967
vn -0.8086 -0.5810 -0.0931
vn -0.8997 -0.4200 -0.1193
vn -0.8760 -0.4753 -0.0817
vn -0.9348 -0.3411 -0.0990
vn -0.9512 -0.3020 -0.0632
vn -0.7981 -0.5934 -0.1046
vn -0.8124 -0.5679 -0.1321
vn -0.8147 -0.5647 -0.1319
vn -0.6629 -0.7469 -0.0520
vn -0.6241 -0.7800 -0.0466
vn -0.6754 -0.7356 -0.0528
vn -0.8975 -0.4381 -0.0505
vn -0.9050 -0.4204 -0.0648
vn -0.6707 -0.7393 -0.0599
vn -0.5829 -0.8122 -0.0241
vn -0.8433 -0.5257 -0.1116
vn -0.6961 -0.7125 -0.0885
vn -0.7530 -0.6484 -0.1118
vn -0.8982 -0.4259 -0.1088
vn -0.8657 -0.4920 -0.0921
vn -0.6541 -0.7553 -0.0412
vn -0.5924 -0.8043 -0.0465
vn -0.5234 -0.8519 -0.0198
vn -0.5157 -0.8567 -0.0089
vn -0.5383 -0.8427 0.0125
vn -0.8597 -0.4889 -0.1481
vn -0.8504 -0.5070 -0.1402
vn -0.8096 -0.5760 -0.1126
vn -0.8566 -0.4962 -0.1416
vn -0.6187 -0.7845 -0.0420
vn -0.6102 -0.7914 -0.0358
vn -0.5672 -0.8236 -0.0091
vn -0.3273 -0.9448 -0.0144
vn -0.3273 -0.9448 -0.0174
vn -0.3279 -0.9445 -0.0188
vn -0.7861 -0.6083 -0.1095
vn -0.7919 -0.5731 -0.2106
vn -0.3724 -0.9279 -0.0175
vn -0.3162 -0.9487 -0.0077
vn -0.4163 -0.9091 -0.0165
vn -0.4297 -0.9030 0.0026
vn -0.6675 -0.7440 -0.0303
vn -0.4919 -0.8706 -0.0088
vn -0.4913 -0.8709 -0.0132
vn -0.9362 -0.3512 -0.0146
vn -0.9575 -0.2810 -0.0657
vn -0.8468 -0.5146 -0.1350
vn -0.6379 -0.7698 -0.0226
vn -0.6071 -0.7942 -0.0256
vn -0.4487 -0.8936 0.0115
vn -0.9630 -0.2596 -0.0724
vn -0.8724 -0.4823 -0.0801
vn -0.6877 -0.7258 -0.0191
vn -0.6492 -0.7605 -0.0109
vn -0.3683 -0.9297 -0.0006
vn -0.4594 -0.8882 0.0028
vn -0.3846 -0.9231 -0.0017
vn -0.9020 -0.4166 -0.1133
vn -0.6230 -0.7821 0.0137
vn -0.1813 -0.9832 -0.0224
vn -0.7025 -0.7070 -0.0810
vn -0.6226 -0.7825 0.0040
vn -0.6224 -0.7818 0.0374
vn -0.6036 -0.7973 0.0039
vn -0.4680 -0.8837 0.0068
vn -0.8068 -0.5883 -0.0543
vn -0.8279 -0.5608 -0.0143
vn -0.7329 -0.6800 -0.0211
vn -0.7837 -0.6209 -0.0148
vn -0.6833 -0.7287 0.0470
vn -0.4694 -0.8830 0.0024
vn -0.5637 -0.8258 0.0178
vn -0.4803 -0.8771 -0.0014
vn -0.6526 -0.7555 0.0582
vn -0.8751 -0.4838 -0.0092
vn -0.8818 -0.4674 0.0627
vn -0.8976 -0.4407 -0.0118
vn -0.6796 -0.7299 0.0734
vn -0.5488 -0.8358 0.0157
vn -0.4111 -0.9113 0.0209
vn -0.9257 -0.3774 -0.0269
vn -0.8334 -0.5525 -0.0141
vn -0.8694 -0.4936 0.0224
vn -0.6408 -0.7639 0.0766
vn -0.4266 -0.9042 0.0208
vn -0.8301 -0.5365 0.1520
vn -0.4567 -0.8895 0.0098
vn -0.9311 -0.3646 0.0055
vn -0.8683 -0.4956 0.0197
vn -0.7238 -0.6844 -0.0881
vn -0.8682 -0.4958 0.0215
vn -0.9502 -0.3082 0.0470
vn -0.9096 -0.3921 0.1375
vn -0.9190 -0.3505 0.1804
vn -0.7414 -0.6525 0.1566
vn -0.7336 -0.6620 0.1537
vn -0.7603 -0.6287 0.1636
vn -0.6550 -0.7504 0.0892
vn -0.5737 -0.8178 0.0457
vn -0.7427 -0.6424 0.1888
vn -0.7660 -0.6142 0.1895
vn -0.7790 -0.6076 0.1547
vn -0.7414 -0.6600 0.1212
vn -0.7427 -0.6478 0.1695
vn -0.7190 -0.6790 0.1484
vn -0.5315 -0.8470 0.0019
vn -0.4907 -0.8710 0.0259
vn -0.4416 -0.8968 0.0287
vn -0.4959 -0.8680 0.0256
vn -0.3952 -0.9185 0.0134
vn -0.8539 -0.4738 0.2155
vn -0.7116 -0.6853 0.1552
vn -0.5781 -0.8148 0.0432
vn -0.5515 -0.8331 0.0422
vn -0.6222 -0.7807 0.0576
vn -0.4802 -0.8769 0.0201
vn -0.8653 -0.4393 0.2414
vn -0.5786 -0.8113 0.0841
vn -0.5394 -0.8407 0.0473
vn -0.5281 -0.8477 0.0511
vn -0.4638 -0.8827 0.0762
vn -0.9541 -0.2722 0.1245
vn -0.7210 -0.6747 0.1581
vn -0.4344 -0.9003 0.0291
vn -0.7732 -0.5912 0.2295
vn -0.6316 -0.7691 0.0980
vn -0.5533 -0.8302 0.0684
vn -0.5864 -0.8034 0.1031
vn -0.9150 -0.3338 0.2264
vn -0.7553 -0.6220 0.2065
vn -0.4946 -0.8663 0.0703
vn -0.4002 -0.9153 0.0457
vn -0.9164 -0.2988 0.2662
vn -0.7973 -0.5524 0.2431
vn -0.7606 -0.6177 0.1998
vn -0.7632 -0.6134 0.2031
vn -0.7794 -0.5888 0.2140
vn -0.8222 -0.5052 0.2622
vn -0.7238 -0.6724 0.1551
vn -0.6766 -0.7248 0.1297
vn -0.5423 -0.8382 0.0585
vn -0.5187 -0.8510 0.0829
vn -0.5097 -0.8573 0.0720
vn -0.5944 -0.8001 0.0806
vn -0.4659 -0.8817 0.0743
vn -0.4251 -0.9025 0.0698
vn -0.4416 -0.8951 0.0617
vn -0.4249 -0.9022 0.0744
vn -0.8334 -0.4771 0.2791
vn -0.8411 -0.4648 0.2765
vn -0.7646 -0.6296 0.1378
vn -0.4237 -0.9035 0.0639
vn -0.7342 -0.6723 0.0947
vn -0.5812 -0.8123 0.0500
vn -0.4694 -0.8797 0.0765
vn -0.7672 -0.6098 0.1990
vn -0.7609 -0.6381 0.1176
vn -0.5256 -0.8487 0.0582
vn -0.4895 -0.8711 0.0401
vn -0.7213 -0.6896 0.0643
vn -0.5444 -0.8369 0.0572
vn -0.6462 -0.7620 0.0415
vn -0.6018 -0.7966 0.0571
vn -0.3553 -0.9310 0.0841
vn -0.7727 -0.6138 0.1616
vn -0.6562 -0.7530 0.0484
vn -0.8017 -0.5965 0.0392
vn -0.7470 -0.6602 0.0782
vn -0.5908 -0.8057 0.0426
vn -0.4604 -0.8852 0.0666
vn -0.7535 -0.6523 0.0818
vn -0.8421 -0.5191 0.1462
vn -0.7633 -0.6454 0.0292
vn -0.7433 -0.6652 0.0714
vn -0.8124 -0.5805 0.0548
vn -0.6505 -0.7590 0.0289
vn -0.5074 -0.8608 0.0395
vn -0.4336 -0.9002 0.0392
vn -0.7809 -0.6241 0.0274
vn -0.5203 -0.8520 0.0582
vn -0.7431 -0.6692 -0.0000
vn -0.7584 -0.6518 0.0028
vn -0.3387 -0.9348 0.1070
vn -0.4360 -0.8983 0.0551
vn -0.6403 -0.7660 0.0569
vn -0.5832 -0.8099 0.0624
vn -0.7673 -0.6413 0.0065
vn -0.6182 -0.7830 0.0695
vn -0.7749 -0.6321 -0.0065
vn -0.2920 -0.9467 0.1358
vn -0.9064 0.4179 0.0622
s 1
f 8//1 12//2 5//3
f 3//4 14//5 1//6
f 1//6 14//5 7//7
f 2//8 5//3 16//9
f 11//10 6//11 18//12
f 13//13 10//14 20//15
f 4//16 21//17 10//18
f 13//13 23//19 19//20
f 4//16 24//21 21//17
f 6//22 9//23 26//24
f 13//13 20//15 23//19
f 21//17 27//25 10//18
f 3//4 28//26 14//5
f 5//3 12//2 16//9
f 8//1 11//27 29//28
f 8//1 29//28 12//2
f 9//29 19//30 26//31
f 29//32 30//33 12//34
f 6//11 26//35 18//12
f 26//36 19//20 31//37
f 23//19 31//37 19//20
f 10//14 27//38 20//15
f 3//39 16//40 33//41
f 11//27 34//42 29//28
f 14//5 28//43 35//44
f 11//10 18//12 34//45
f 26//36 36//46 18//47
f 27//48 37//49 20//50
f 3//4 33//51 28//26
f 12//34 30//33 16//52
f 20//15 38//53 23//19
f 24//21 39//54 21//17
f 14//5 35//44 7//7
f 18//47 36//46 34//55
f 23//19 38//53 31//37
f 31//37 38//53 40//56
f 20//15 37//49 38//53
f 26//36 41//57 36//46
f 16//40 30//58 33//41
f 29//32 34//59 30//33
f 38//53 42//60 40//56
f 27//25 21//17 44//61
f 22//62 32//63 45//64
f 31//37 41//57 26//36
f 31//37 40//56 41//57
f 33//41 30//58 46//65
f 34//66 47//67 30//68
f 21//69 39//70 44//71
f 15//72 48//73 17//74
f 36//46 41//57 49//75
f 30//58 47//76 46//65
f 25//77 50//78 32//79
f 17//80 51//80 25//80
f 40//56 52//81 41//57
f 40//56 42//60 52//81
f 22//82 45//64 24//83
f 53//84 54//85 35//44
f 34//66 36//86 49//75
f 38//53 37//49 55//87
f 27//48 44//88 37//49
f 32//79 50//78 56//89
f 35//44 54//85 43//90
f 46//65 57//91 33//41
f 34//66 49//75 47//67
f 52//81 58//92 41//57
f 38//53 55//93 42//60
f 48//94 59//95 17//96
f 33//41 57//91 60//97
f 42//60 61//98 52//81
f 25//77 51//99 50//78
f 28//43 53//84 35//44
f 33//41 60//97 28//43
f 41//57 63//100 49//75
f 37//49 44//88 64//101
f 39//70 65//102 44//71
f 24//21 66//103 39//54
f 32//63 67//104 45//64
f 41//57 58//92 63//100
f 28//43 60//97 53//84
f 49//75 63//100 47//67
f 47//105 68//106 46//65
f 63//107 69//108 47//105
f 63//107 58//92 70//109
f 44//71 65//102 64//101
f 46//65 68//106 57//91
f 17//96 59//95 51//110
f 42//60 55//93 61//98
f 39//54 66//103 71//111
f 45//64 67//104 24//83
f 24//83 67//104 72//112
f 61//98 73//113 52//81
f 55//87 37//49 64//101
f 57//114 74//115 60//116
f 52//81 73//117 58//92
f 66//103 72//118 71//111
f 50//78 75//119 56//89
f 54//85 53//84 76//120
f 68//106 47//105 77//121
f 68//106 77//122 57//91
f 55//93 78//123 61//98
f 64//101 78//123 55//87
f 32//79 56//89 79//124
f 57//114 80//125 74//115
f 32//63 79//126 67//104
f 74//115 81//127 60//116
f 53//84 60//97 81//128
f 47//105 69//108 77//121
f 54//85 76//120 43//90
f 43//90 76//120 62//129
f 57//91 77//122 80//130
f 53//131 81//132 76//133
f 69//134 82//135 77//136
f 63//107 70//109 69//108
f 64//101 65//102 83//137
f 72//118 84//138 71//111
f 82//139 85//140 77//141
f 70//142 86//143 82//139
f 70//144 82//135 69//134
f 78//123 73//113 61//98
f 78//123 64//101 83//137
f 71//111 65//145 39//54
f 67//146 87//147 72//148
f 50//149 51//149 75//149
f 80//125 88//150 74//115
f 70//109 73//117 86//151
f 58//92 73//117 70//109
f 56//89 75//119 79//124
f 65//152 71//153 90//154
f 72//118 87//155 84//138
f 74//115 88//150 81//132
f 85//140 80//125 77//141
f 65//152 90//154 83//137
f 81//132 91//156 76//133
f 71//111 84//138 92//157
f 67//158 79//159 93//160
f 62//161 76//161 89//161
f 73//117 95//162 86//151
f 67//146 93//163 87//147
f 80//125 85//140 88//150
f 85//140 82//139 96//164
f 90//154 97//165 83//137
f 71//111 92//157 90//166
f 73//113 78//123 95//162
f 92//157 98//167 90//166
f 76//133 91//156 89//168
f 81//132 88//150 91//156
f 86//151 95//162 100//169
f 78//123 83//137 95//162
f 87//170 101//170 84//170
f 75//171 94//171 79//171
f 91//172 99//172 89//172
f 85//140 96//164 88//173
f 82//139 102//174 96//164
f 82//139 86//143 102//174
f 86//151 100//169 102//175
f 90//166 98//167 97//165
f 96//164 103//176 104//177
f 102//174 103//176 96//164
f 83//137 105//178 95//162
f 83//137 106//179 105//178
f 84//138 107//180 92//157
f 84//138 101//181 107//180
f 87//182 93//182 101//182
f 96//164 104//177 88//173
f 97//165 106//179 83//137
f 98//183 92//183 108//183
f 79//159 109//184 93//160
f 94//185 109//186 79//187
f 88//150 111//188 91//156
f 111//189 88//173 104//177
f 95//162 112//190 100//169
f 94//185 113//191 109//186
f 95//162 105//178 112//190
f 105//178 114//192 112//190
f 105//178 106//179 114//192
f 92//157 107//180 108//193
f 93//160 109//184 101//194
f 100//169 115//195 102//175
f 112//190 115//196 100//169
f 101//197 116//198 107//180
f 106//179 97//165 114//192
f 98//167 117//199 97//165
f 108//200 118//201 98//202
f 94//185 110//203 113//191
f 102//174 119//204 103//176
f 97//165 117//199 114//192
f 98//202 118//201 117//205
f 115//196 120//206 102//207
f 108//193 121//208 118//201
f 109//184 122//209 101//194
f 109//184 113//191 122//209
f 120//206 119//210 102//211
f 123//212 115//196 112//190
f 112//190 114//192 123//213
f 119//210 124//214 103//215
f 116//198 125//216 107//180
f 122//217 126//217 101//217
f 127//218 120//206 115//196
f 114//192 117//199 123//213
f 115//196 123//212 127//218
f 108//193 107//180 121//208
f 101//219 126//219 116//219
f 119//210 120//206 124//214
f 117//220 128//221 123//212
f 113//191 130//222 122//209
f 110//203 130//222 113//191
f 107//180 125//216 121//208
f 130//223 129//223 122//223
f 118//201 131//224 117//205
f 118//201 121//208 131//224
f 125//216 132//225 121//208
f 127//218 123//212 133//226
f 121//208 132//225 134//227
f 124//214 120//206 135//228
f 120//206 127//218 135//228
f 121//208 134//227 131//224
f 110//203 136//229 130//222
f 123//212 128//221 133//226
f 133//226 135//228 127//218
f 138//230 137//230 139//230
