# Blender v2.79 (sub 0) OBJ File: ''
# www.blender.org
o foo.041_foo.043
v 233.428726 118.206863 -726.900574
v 226.937088 135.106094 -726.929993
v 229.552124 123.624153 -719.305298
v 240.850235 100.573151 -726.874512
v 236.305847 111.489479 -726.887573
v 236.741837 107.741524 -721.355042
v 243.639435 89.349411 -722.786133
v 245.121414 86.329414 -726.896118
v 243.120651 94.446533 -726.830811
v 247.802124 75.280197 -726.918640
v 246.277634 76.946129 -722.452454
v 228.473114 129.258484 -722.715149
v 238.446152 103.707504 -721.450806
v 243.172394 83.958023 -719.352478
v 231.092987 120.534874 -719.286682
v 241.765472 87.710175 -718.923706
v 243.857086 79.944229 -720.594482
v 231.887436 114.337234 -717.489258
v 234.028839 108.743256 -716.284851
v 237.903275 98.663109 -717.625366
v 224.795120 127.142960 -714.335876
v 226.980499 123.253029 -713.470581
v 230.048782 117.236382 -713.504028
v 235.817993 103.804131 -716.134399
v 246.369156 74.645302 -715.468689
v 239.711624 93.027695 -717.732605
v 241.596222 92.410339 -708.724915
v 245.948990 78.617523 -709.476440
v 234.660370 111.629486 -706.669434
v 241.024826 95.721771 -706.372986
v 236.301788 107.570107 -705.948120
v 239.104980 99.819405 -707.336853
v 237.688919 103.727394 -706.983154
v 243.694077 89.111237 -704.502502
v 245.666016 82.285149 -703.589111
v 227.543381 127.914787 -706.251404
v 229.942871 124.236717 -704.005493
v 233.712234 115.981392 -702.987488
v 248.040085 73.105652 -703.928162
v 232.468887 119.853989 -702.590698
v 224.777908 133.731125 -702.578186
v 238.174789 104.635918 -696.058777
v 227.575485 130.982864 -695.514771
v 230.890747 123.732956 -689.047913
v 247.151672 76.490242 -697.590088
v 223.580048 134.705948 -690.084961
v 238.462173 101.375130 -681.296875
v 244.629044 85.498634 -684.508850
v 233.741165 113.508705 -682.708191
v 242.026535 94.686768 -686.022278
v 232.976349 117.576874 -685.069824
v 239.570068 97.358231 -680.908081
v 241.741653 91.613251 -681.174927
v 227.731796 127.791115 -686.952759
v 247.984970 70.883690 -682.910828
v 246.286331 81.018951 -687.320862
v 247.313522 76.155083 -686.557739
v 236.668564 107.774376 -683.079651
v 217.452179 141.510971 -671.965576
v 225.823151 129.438004 -682.012329
v 221.757294 137.586868 -677.432617
v 227.769653 124.676735 -682.666565
v 224.117523 133.820404 -678.529968
v 229.737122 121.085304 -682.543701
v 236.285690 104.466026 -677.739197
v 231.252136 117.113365 -677.844055
v 242.015762 88.766159 -676.365417
v 243.610275 83.493057 -677.911987
v 244.876205 77.560150 -678.013367
v 247.381088 69.951424 -678.516541
v 231.352249 120.012650 -674.337158
v 235.435654 108.375885 -673.987061
v 241.548828 93.750862 -672.174194
v 229.882050 124.752037 -673.357727
v 233.977219 113.847221 -672.961121
v 237.649384 105.138023 -672.082642
v 239.782516 98.683678 -671.972534
v 246.646210 80.417046 -668.384766
v 224.301453 133.198166 -665.966553
v 247.323563 75.224266 -672.743347
v 226.171768 130.071823 -664.666504
v 238.107193 100.386192 -656.973572
v 243.919830 86.544266 -662.743469
v 245.883942 76.387001 -659.391968
v 247.072266 71.712685 -660.102722
v 228.865143 126.698936 -665.881592
v 232.007507 119.658340 -663.388306
v 234.519791 110.092194 -658.185974
v 232.868607 115.037567 -659.895508
v 237.388763 106.983398 -662.042053
v 240.847656 95.611099 -661.600159
v 218.809067 138.146790 -661.043518
v 241.303528 90.208954 -657.904602
v 226.860779 128.272766 -657.819885
v 229.356949 122.996452 -660.372559
v 236.840790 103.653069 -657.370911
v 243.814194 82.238235 -658.864685
v 242.652344 85.489563 -656.192505
v 213.113968 139.131638 -652.051453
v 230.047150 122.820351 -650.545288
v 239.694489 95.718330 -656.318848
v 232.463104 118.976295 -653.977295
v 227.362320 126.518684 -651.189697
v 235.059540 113.272850 -649.785278
v 236.012161 109.992210 -652.419983
v 248.293671 68.546265 -655.239441
v 244.501282 80.019455 -652.815674
v 246.991318 73.471313 -652.847900
v 215.526031 133.989044 -641.952881
v 232.428574 115.689430 -640.680420
v 238.424438 102.726891 -652.737366
v 244.744522 84.292122 -647.970276
v 219.850266 130.730286 -642.051453
v 242.570328 91.141396 -649.189880
v 248.058350 69.503723 -644.196411
v 211.807114 134.819672 -640.771362
v 236.247208 107.278015 -637.937622
v 246.646851 76.073845 -645.591736
v 245.788361 80.497780 -648.047485
v 226.604156 119.013756 -632.680054
v 241.954453 92.279930 -639.878662
v 217.426285 129.913910 -637.521118
v 238.830368 101.236778 -637.581726
v 240.577240 96.489815 -637.252625
v 244.865906 75.784576 -627.982422
v 242.879196 87.464462 -634.652161
v 243.855728 81.401299 -628.636169
v 221.312698 125.446991 -634.674194
v 240.592834 92.898651 -629.843872
v 209.746597 129.547852 -631.112122
v 210.872894 127.722656 -629.047180
v 228.523254 116.069489 -631.675842
v 212.731079 125.864235 -628.256348
v 215.346786 123.523170 -627.200500
v 228.615356 111.250519 -625.919250
v 237.143341 100.307487 -629.481689
v 220.343018 122.194969 -629.525513
v 241.677780 86.802925 -626.548889
v 231.355270 106.663933 -624.646973
v 217.293457 119.636208 -624.514648
v 220.406158 117.305870 -623.986450
v 233.718536 101.124130 -622.356689
v 234.519470 97.961090 -621.251404
v 227.964905 107.596855 -622.151733
v 237.043152 94.197922 -622.635132
v 237.281403 89.134636 -618.247925
v 229.183929 103.262459 -618.704285
vn 0.9115 0.3505 0.2152
vn 0.9073 0.3779 0.1845
vn 0.8739 0.4317 0.2236
vn 0.8454 0.4511 0.2861
vn 0.9567 0.2344 0.1727
vn 0.9443 0.2287 0.2367
vn 0.9442 0.2286 0.2370
vn 0.9271 0.2803 0.2489
vn 0.9021 0.2885 0.3210
vn 0.9071 0.3789 0.1831
vn 0.9109 0.2628 0.3180
vn 0.8862 0.4428 0.1365
vn 0.8334 0.2306 0.5022
vn 0.8535 0.3197 0.4114
vn 0.8782 0.2210 0.4242
vn 0.4292 -0.1994 0.8810
vn 0.9861 0.1660 0.0071
vn 0.7641 -0.0682 0.6415
vn 0.8753 0.3827 0.2955
vn 0.8771 0.3763 0.2984
vn 0.8734 0.3892 0.2927
vn 0.8432 0.3879 0.3721
vn 0.8784 0.3280 0.3476
vn 0.9127 0.2304 0.3374
vn 0.9111 -0.0979 0.4005
vn 0.8277 0.4048 0.3886
vn 0.8307 0.3959 0.3913
vn 0.8267 0.4034 0.3921
vn 0.9358 0.2446 0.2538
vn 0.8654 0.4997 0.0369
vn 0.9168 0.3681 0.1552
vn 0.9579 0.1380 0.2517
vn 0.9289 0.2199 0.2979
vn 0.8695 0.3479 0.3507
vn 0.8576 0.2988 0.4185
vn 0.8434 0.3466 0.4106
vn 0.8641 0.2747 0.4218
vn 0.8969 0.2991 0.3257
vn 0.9371 0.3468 0.0404
vn 0.9343 0.3371 0.1162
vn 0.8771 0.4728 -0.0848
vn 0.7319 0.5114 0.4504
vn 0.8549 0.5014 0.1331
vn 0.8714 0.3959 0.2897
vn 0.8594 0.3234 0.3960
vn 0.8740 0.2304 0.4279
vn 0.8874 0.2689 0.3744
vn 0.8849 0.2768 0.3747
vn 0.8158 0.5524 0.1713
vn 0.8225 0.4173 0.3865
vn 0.8234 0.4130 0.3892
vn 0.9116 0.3789 -0.1595
vn 0.9075 0.3871 -0.1633
vn 0.9085 0.3850 -0.1624
vn 0.9402 0.3105 -0.1399
vn 0.9330 0.3231 -0.1583
vn 0.9356 0.3037 -0.1802
vn 0.9645 0.2128 -0.1561
vn 0.9287 0.3313 -0.1666
vn 0.9006 0.4074 -0.1515
vn 0.9000 0.4089 -0.1511
vn 0.9117 0.4024 -0.0830
vn 0.9086 0.4156 -0.0418
vn 0.8048 0.5907 -0.0584
vn 0.9243 0.3446 -0.1641
vn 0.9285 0.3580 -0.0985
vn 0.9290 0.3616 -0.0789
vn 0.9196 0.3686 -0.1359
vn 0.9081 0.3769 -0.1825
vn 0.9188 0.3805 -0.1045
vn 0.9549 0.2619 -0.1398
vn 0.9410 0.2882 -0.1771
vn 0.9732 0.2187 -0.0715
vn 0.9346 0.3461 -0.0817
vn 0.9185 0.3496 -0.1849
vn 0.9426 0.3221 -0.0880
vn 0.9125 0.3771 -0.1587
vn 0.9630 0.2471 -0.1077
vn 0.9550 0.2702 -0.1224
vn 0.9730 0.2226 -0.0614
vn 0.8676 0.4544 -0.2018
vn 0.8625 0.4412 -0.2478
vn 0.9243 0.3523 -0.1465
vn 0.8762 0.4080 -0.2565
vn 0.9598 0.2709 -0.0730
vn 0.9185 0.3625 -0.1580
vn 0.9610 0.2559 -0.1051
vn 0.9594 0.2605 -0.1077
vn 0.9602 0.2591 -0.1045
vn 0.8633 0.3971 -0.3115
vn 0.9444 0.3033 -0.1270
vn 0.8826 0.3188 -0.3456
vn 0.9180 0.3739 -0.1320
vn 0.9576 0.2601 -0.1239
vn 0.8728 0.4345 -0.2222
vn 0.9761 0.2155 -0.0278
vn 0.9164 0.3842 -0.1125
vn 0.8550 0.4980 -0.1449
vn 0.9866 0.1617 -0.0223
vn 0.8552 0.5170 -0.0368
vn 0.8693 0.4918 0.0495
vn 0.9465 0.3204 -0.0384
vn 0.9661 0.2561 0.0335
vn 0.9605 0.2782 0.0053
vn 0.9521 0.3055 0.0107
vn 0.9199 0.3912 0.0277
vn 0.9766 0.2152 -0.0037
vn 0.9058 0.4238 0.0026
vn 0.9798 0.1962 -0.0382
vn 0.9434 0.3134 0.1087
vn 0.9643 0.2639 -0.0215
vn 0.9617 0.2728 -0.0256
vn 0.8371 0.5469 0.0114
vn 0.7213 0.6903 0.0568
vn 0.6875 0.7262 0.0085
vn 0.8065 0.5841 0.0915
vn 0.8887 0.4345 0.1462
vn 0.8388 0.5444 -0.0047
vn 0.7816 0.6231 -0.0285
vn 0.9617 0.2732 0.0218
vn 0.9541 0.2624 0.1443
vn 0.9880 0.1537 -0.0117
vn 0.9801 0.1974 0.0227
vn 0.9280 0.3720 -0.0182
vn 0.9469 0.3183 0.0451
vn 0.7345 0.6786 -0.0016
vn 0.8675 0.4663 0.1731
vn 0.9066 0.4217 0.0152
vn 0.9493 0.3123 0.0355
vn 0.9944 -0.1052 -0.0083
vn 0.9649 0.1929 0.1781
vn 0.9768 0.2131 0.0233
vn 0.9897 0.1433 -0.0033
vn 0.8555 0.4902 0.1671
vn 0.8197 0.4667 0.3319
vn 0.8906 0.4548 -0.0015
vn 0.8878 0.4602 -0.0070
vn 0.8130 0.5809 0.0395
vn 0.9100 0.3392 0.2385
vn 0.8985 0.4373 0.0390
vn 0.8219 0.4617 0.3337
vn 0.8650 0.4790 0.1492
vn 0.8002 0.4923 0.3424
vn 0.8815 0.4474 0.1509
vn 0.9509 0.2279 0.2093
vn 0.9391 0.3122 0.1435
vn 0.9104 0.4125 0.0320
vn 0.8596 0.4541 0.2342
vn 0.8664 0.4406 0.2350
vn 0.7913 0.5684 0.2253
vn 0.9195 0.3118 0.2394
vn 0.9233 0.3513 0.1553
vn 0.9523 0.2183 0.2134
vn 0.9441 0.2356 0.2306
vn 0.9505 0.2244 0.2150
vn 0.9360 0.2729 0.2221
vn 0.9304 0.2939 -0.2190
vn 0.9550 0.2000 0.2190
vn 0.9120 0.3771 -0.1615
vn 0.9875 0.0920 0.1278
vn 0.9325 0.3555 -0.0644
vn 0.9343 0.3501 -0.0671
vn 0.9361 0.3448 -0.0696
vn 0.9349 0.2975 0.1938
vn 0.9360 0.2955 0.1913
vn 0.9021 0.3781 -0.2078
vn 0.8763 0.4514 -0.1683
vn 0.8635 0.4888 -0.1243
vn 0.7960 0.6040 -0.0403
vn 0.8647 0.4743 -0.1654
vn 0.8893 0.4481 0.0909
vn 0.8975 0.3571 -0.2588
vn 0.8941 0.3653 -0.2590
vn 0.8615 0.4364 -0.2595
vn 0.9637 0.2599 -0.0615
vn 0.9380 0.3388 -0.0726
vn 0.9496 0.2066 -0.2359
vn 0.9337 0.2988 -0.1972
vn 0.9187 0.3883 -0.0716
vn 0.7955 0.6002 0.0835
vn 0.9662 0.2577 -0.0010
vn 0.9642 0.2631 -0.0325
vn 0.9662 0.2577 -0.0005
vn 0.8375 0.5451 0.0388
vn 0.9963 0.0851 0.0098
vn 0.9956 0.0941 -0.0010
vn 0.9971 0.0723 0.0251
vn 0.9032 0.3318 -0.2724
vn 0.9043 0.3264 -0.2752
vn 0.9011 0.3417 -0.2670
vn 0.9061 0.3168 -0.2804
vn 0.9203 0.3292 -0.2115
vn 0.9189 0.2993 -0.2571
vn 0.9224 0.3849 -0.0326
vn 0.8557 0.5174 0.0131
vn 0.7313 0.6735 0.1077
vn 0.9377 0.3451 0.0395
vn 0.9438 0.3224 0.0728
vn 0.9375 0.3474 -0.0187
vn 0.9471 0.3104 -0.0818
vn 0.9896 0.1052 0.0986
vn 0.9848 0.1099 0.1343
vn 0.9619 0.2339 0.1413
vn 0.9998 -0.0083 0.0176
vn 0.7973 0.6016 -0.0482
vn 0.7740 0.6320 -0.0386
vn 0.9109 0.4124 0.0165
vn 0.9383 0.3428 -0.0451
vn 0.9512 0.3048 -0.0471
vn 0.9355 0.3504 -0.0446
vn 0.9226 0.3833 -0.0428
vn 0.9421 0.3317 0.0497
vn 0.9601 0.2742 0.0551
vn 0.9548 0.2925 0.0532
vn 0.8852 0.4606 -0.0646
vn 0.8434 0.5320 -0.0759
vn 0.9836 0.1104 0.1428
vn 0.9718 0.2277 0.0617
vn 0.9672 0.2524 0.0286
vn 0.9415 0.3370 0.0031
vn 0.9225 0.3713 0.1050
vn 0.9451 0.2990 0.1320
vn 0.6972 0.6923 0.1861
vn 0.9923 0.1149 0.0456
vn 0.9687 0.2335 0.0841
vn 0.7125 0.7008 -0.0348
vn 0.9973 0.0654 0.0334
vn 0.8040 0.5944 -0.0154
vn 0.7927 0.6045 0.0791
vn 0.8535 0.4645 0.2360
vn 0.9251 0.3693 0.0881
vn 0.9480 0.1959 0.2507
vn 0.9200 0.3584 0.1588
vn 0.9623 0.1685 0.2133
vn 0.9493 0.1971 0.2447
vn 0.8714 0.4878 -0.0525
vn 0.8921 0.4485 -0.0546
vn 0.8725 0.4877 0.0304
vn 0.9489 0.2907 0.1226
vn 0.9100 0.3440 0.2315
vn 0.9513 0.2990 0.0749
vn 0.9653 0.2545 -0.0590
vn 0.9263 0.3082 0.2166
vn 0.8469 0.5290 0.0538
vn 0.7320 0.6611 0.1643
vn 0.9870 0.1564 -0.0364
vn 0.7861 0.6181 0.0067
vn 0.8640 0.3564 0.3555
vn 0.9540 0.2199 0.2038
vn 0.7718 0.5967 0.2196
vn 0.7232 0.6663 0.1817
vn 0.9366 0.3180 -0.1475
vn 0.9356 0.2611 -0.2376
vn 0.9427 0.2318 -0.2400
vn 0.9312 0.2777 -0.2362
vn 0.8582 0.5115 0.0433
vn 0.9460 0.3230 -0.0277
vn 0.9178 0.3738 -0.1336
vn 0.9418 0.3362 0.0038
vn 0.9237 0.3034 -0.2338
vn 0.9431 0.3323 0.0148
vn 0.9440 0.3297 0.0137
vn 0.9448 0.3275 0.0130
vn 0.9661 0.2533 -0.0506
vn 0.5283 0.8003 0.2836
vn 0.4590 0.8056 0.3746
vn 0.8665 0.4841 0.1219
vn 0.8742 0.4709 0.1187
vn 0.9144 0.3194 -0.2487
vn 0.9156 0.3149 -0.2500
vn 0.9148 0.3181 -0.2491
vn 0.9132 0.3239 -0.2474
vn 0.9569 0.1955 -0.2150
vn 0.9449 0.3272 0.0127
vn 0.9347 0.3554 0.0002
vn 0.9579 0.2812 -0.0575
vn 0.6297 0.7095 0.3165
vn 0.9313 0.2848 -0.2271
vn 0.9317 0.3210 -0.1698
vn 0.9182 0.3740 -0.1303
vn 0.8972 0.4405 -0.0321
vn 0.9577 0.1904 -0.2160
vn 0.9556 0.2941 0.0176
vn 0.9480 0.2712 -0.1668
vn 0.9543 0.2898 -0.0735
vn 0.9666 0.2564 -0.0016
vn 0.9408 0.3371 0.0366
vn 0.8953 0.4129 0.1670
vn 0.9522 0.2990 -0.0619
vn 0.9313 0.3546 -0.0830
vn 0.9640 0.2615 -0.0482
vn 0.9717 0.1827 -0.1498
vn 0.9492 0.1579 -0.2721
vn 0.9625 0.2656 -0.0555
vn 0.9636 0.0404 -0.2642
vn 0.6650 0.6426 0.3806
vn 0.9590 0.2789 0.0502
vn 0.9782 0.2057 -0.0287
vn 0.3267 0.8286 0.4546
vn 0.5412 0.7280 0.4208
vn 0.9098 0.3940 0.1304
vn 0.9712 0.2318 -0.0543
vn 0.9774 0.2045 -0.0535
vn 0.9516 0.3020 -0.0563
vn 0.9189 0.3677 0.1427
vn 0.9382 0.3459 0.0089
vn 0.9299 0.3505 0.1116
vn 0.9378 0.3425 -0.0573
vn 0.8064 0.5316 0.2591
vn 0.7322 0.6235 0.2740
vn 0.6692 0.6121 0.4213
vn 0.9639 0.2468 0.1000
vn 0.9646 0.2436 0.1016
vn 0.9648 0.2429 0.1007
vn 0.9723 0.2275 0.0546
vn 0.9760 0.2041 0.0754
vn 0.9827 0.1836 0.0256
vn 0.6093 0.6749 0.4163
vn 0.9631 0.2429 0.1157
vn 0.9472 0.3012 0.1100
vn 0.9593 0.2618 0.1056
vn 0.3461 0.7886 0.5083
vn 0.4133 0.7517 0.5140
vn 0.7516 0.5344 0.3867
vn 0.3467 0.7886 0.5079
vn 0.4676 0.6982 0.5421
vn 0.4372 0.7226 0.5355
vn 0.4379 0.7222 0.5354
vn 0.4335 0.7245 0.5359
vn 0.6446 0.5539 0.5270
vn 0.8897 0.3940 0.2305
vn 0.8773 0.3951 0.2725
vn 0.8750 0.3785 0.3017
vn 0.9801 0.1847 0.0727
vn 0.4902 0.6798 0.5455
vn 0.4515 0.6731 0.5857
vn 0.9526 0.2572 0.1622
vn 0.4325 0.7250 0.5361
vn 0.7983 0.5118 0.3175
vn 0.7137 0.5472 0.4372
vn 0.7536 0.5217 0.3998
vn 0.4559 0.6491 0.6089
vn 0.5256 0.6314 0.5702
vn 0.5391 0.6345 0.5539
vn 0.8075 0.4931 0.3237
vn 0.4114 0.6857 0.6005
vn 0.8094 0.4832 0.3337
vn 0.8598 0.3482 0.3734
vn 0.8544 0.3597 0.3749
vn 0.9352 0.3136 0.1643
vn 0.5936 0.5241 0.6107
vn 0.8497 0.3971 0.3469
vn 0.8585 0.3671 0.3582
vn 0.8367 0.4360 0.3315
vn 0.8641 0.3506 0.3610
vn 0.5525 0.5487 0.6275
vn 0.5740 0.6025 0.5546
vn 0.8652 0.3487 0.3603
s 1
f 1//1 2//1 3//1
f 4//2 5//3 6//4
f 7//5 8//5 9//5
f 10//6 8//7 11//7
f 13//8 4//9 6//10
f 11//11 8//11 14//11
f 1//12 3//12 15//12
f 7//13 9//14 16//15
f 11//16 14//17 17//18
f 5//19 1//20 18//21
f 5//3 19//22 6//4
f 9//23 4//9 20//24
f 8//25 7//13 16//15
f 3//26 12//27 22//28
f 1//29 23//30 18//31
f 1//32 15//33 23//34
f 13//35 6//36 24//37
f 4//9 13//8 20//24
f 8//38 16//39 14//40
f 22//41 12//42 21//43
f 19//44 5//19 18//21
f 24//45 6//4 19//22
f 20//46 13//35 24//37
f 26//47 9//14 20//48
f 9//14 26//47 16//15
f 25//49 11//49 17//49
f 15//33 22//50 23//34
f 15//51 3//26 22//28
f 16//52 26//53 27//54
f 25//55 17//55 28//55
f 29//56 19//56 18//56
f 26//57 20//57 30//57
f 17//18 14//17 28//58
f 24//59 19//59 31//59
f 20//60 24//61 32//62
f 30//63 20//60 32//62
f 18//31 23//30 29//64
f 19//65 29//66 31//67
f 33//68 24//69 31//70
f 27//71 26//72 30//73
f 32//74 24//75 33//76
f 16//52 27//54 34//77
f 28//78 14//79 35//80
f 22//41 21//43 37//81
f 23//82 22//82 38//82
f 29//83 23//84 38//85
f 14//40 16//39 34//86
f 39//87 25//88 28//89
f 40//90 22//41 37//81
f 38//91 22//92 40//93
f 35//94 14//94 34//94
f 37//81 21//43 36//95
f 33//68 31//70 42//96
f 36//97 41//98 43//99
f 40//93 37//100 44//101
f 39//102 28//102 45//102
f 32//74 33//76 47//103
f 35//104 34//105 48//106
f 45//107 28//78 35//80
f 29//83 38//85 49//108
f 27//71 30//73 50//109
f 38//91 40//93 51//110
f 32//62 47//111 52//112
f 34//113 27//113 53//113
f 43//114 41//115 46//116
f 36//97 43//99 54//117
f 37//81 36//95 54//118
f 47//103 33//76 42//96
f 37//100 54//119 44//101
f 56//120 35//80 48//121
f 45//107 35//80 57//122
f 49//123 38//91 51//110
f 31//67 29//66 58//124
f 50//125 30//126 52//127
f 43//114 46//116 60//128
f 40//93 44//101 51//110
f 42//96 31//70 58//129
f 42//96 58//129 47//103
f 30//63 32//62 52//112
f 27//130 50//125 53//131
f 39//132 45//107 55//133
f 54//117 43//99 60//134
f 35//80 56//120 57//122
f 55//133 45//107 57//122
f 44//135 54//135 62//135
f 58//136 29//83 49//108
f 63//137 46//116 61//138
f 54//139 60//139 62//139
f 64//140 44//141 62//142
f 51//110 44//101 64//143
f 47//144 58//145 65//146
f 48//106 34//105 53//147
f 60//128 46//116 63//137
f 66//148 51//149 64//150
f 49//151 51//149 66//148
f 48//152 53//152 67//152
f 56//120 48//121 68//153
f 69//154 57//154 56//154
f 50//125 52//127 53//131
f 68//155 48//155 67//155
f 55//156 57//156 69//156
f 71//157 64//140 62//142
f 69//158 56//158 68//158
f 66//159 64//140 71//157
f 65//146 58//145 72//160
f 53//161 52//162 73//163
f 55//164 69//165 70//165
f 62//166 60//167 74//168
f 49//169 66//159 75//170
f 58//171 49//171 72//171
f 76//172 65//173 72//174
f 52//112 47//111 77//175
f 73//163 52//162 77//176
f 69//177 68//178 78//179
f 63//137 61//138 79//180
f 72//181 49//182 75//183
f 77//184 47//144 65//146
f 67//185 53//186 73//187
f 80//188 69//189 78//190
f 70//191 69//189 80//188
f 71//192 62//166 74//168
f 75//170 66//159 71//157
f 65//173 76//172 77//193
f 60//128 63//137 81//194
f 81//195 63//137 79//180
f 79//180 61//138 59//196
f 77//197 76//198 82//199
f 68//200 67//200 83//200
f 80//201 78//202 84//203
f 85//204 70//204 80//204
f 74//168 60//167 86//205
f 86//206 60//206 81//206
f 87//207 74//207 86//207
f 71//208 74//209 87//210
f 75//211 71//208 87//210
f 88//212 75//213 89//214
f 76//215 72//216 90//217
f 89//214 75//213 87//218
f 72//181 75//183 88//219
f 73//220 77//197 91//221
f 78//179 68//178 83//222
f 79//180 59//196 92//223
f 73//224 91//224 93//224
f 80//201 84//203 85//225
f 90//226 72//226 88//226
f 91//221 77//197 82//199
f 93//227 67//185 73//187
f 83//228 67//228 93//228
f 86//229 81//229 94//229
f 87//230 86//230 95//230
f 82//199 76//198 96//231
f 96//232 76//215 90//217
f 86//233 94//233 95//233
f 97//234 83//234 98//234
f 78//179 83//222 97//235
f 95//236 94//237 100//238
f 91//221 82//199 101//239
f 83//240 93//241 98//242
f 78//202 97//243 84//203
f 81//244 79//180 94//245
f 89//246 87//246 102//246
f 87//247 95//247 102//247
f 96//232 90//217 88//248
f 93//249 91//221 101//239
f 94//245 79//180 92//223
f 100//250 94//245 103//251
f 104//252 89//252 102//252
f 88//253 89//254 105//255
f 102//256 95//236 100//238
f 105//257 89//258 104//259
f 96//260 88//253 105//255
f 84//261 97//262 107//263
f 85//264 84//264 108//264
f 92//223 99//265 109//266
f 104//267 102//256 110//268
f 96//269 105//270 111//271
f 82//272 96//269 111//271
f 98//242 93//241 112//273
f 97//262 98//274 107//263
f 84//275 107//275 108//275
f 106//276 85//276 108//276
f 94//245 92//223 113//277
f 103//251 94//245 113//277
f 101//239 82//199 111//278
f 93//279 101//280 114//281
f 107//282 98//282 112//282
f 112//283 93//284 114//285
f 115//286 106//286 108//286
f 113//277 92//223 109//266
f 111//287 105//257 117//288
f 108//289 107//290 118//291
f 119//292 107//293 112//294
f 107//293 119//292 118//295
f 120//296 103//251 113//277
f 110//268 102//256 100//238
f 117//288 105//257 104//259
f 114//281 101//280 121//297
f 108//289 118//291 115//298
f 109//266 99//265 116//299
f 113//277 109//266 122//300
f 100//250 103//251 120//296
f 111//287 117//288 123//301
f 101//302 111//303 124//304
f 124//305 111//306 123//307
f 121//308 101//302 124//304
f 110//309 100//310 120//311
f 118//312 119//313 125//314
f 104//259 110//309 117//288
f 114//281 121//297 126//315
f 112//283 114//285 127//316
f 127//317 114//281 126//315
f 120//296 113//277 128//318
f 121//319 124//319 129//319
f 121//297 129//320 126//315
f 119//292 112//294 125//321
f 109//266 116//299 130//322
f 122//323 109//323 131//323
f 128//318 113//277 122//300
f 132//324 110//309 120//311
f 131//325 109//266 130//322
f 133//326 122//326 131//326
f 134//327 128//328 122//329
f 110//309 132//324 135//330
f 117//288 110//309 135//330
f 123//301 117//288 136//331
f 129//332 124//305 136//333
f 125//334 112//283 127//316
f 137//335 128//318 134//336
f 120//296 128//318 137//335
f 124//305 123//307 136//333
f 126//337 129//337 138//337
f 134//327 122//329 133//338
f 117//339 135//340 139//341
f 140//342 137//335 134//336
f 141//343 120//311 137//344
f 136//345 117//339 139//341
f 137//344 140//346 141//343
f 120//311 141//343 135//330
f 135//330 132//324 120//311
f 136//345 139//341 142//347
f 136//333 142//348 143//349
f 129//332 136//333 143//349
f 126//350 138//350 127//350
f 144//351 139//341 135//340
f 145//352 129//353 143//354
f 146//355 129//353 145//352
f 135//330 141//343 144//356
f 147//357 139//357 144//357
f 138//358 129//353 146//355
