# Blender v2.79 (sub 0) OBJ File: ''
# www.blender.org
o foo.001_foo.004
v 60.727650 -66.571404 -660.417664
v 58.365376 -41.265903 -675.344360
v 59.324287 -57.290802 -666.725952
v 58.827152 -34.386181 -676.279602
v 58.830505 -29.776932 -672.451721
v 58.346527 -51.303883 -664.932800
v 58.351616 -22.509989 -667.047852
v 57.765396 -38.357807 -662.644165
v 56.635002 0.525832 -660.786621
v 58.213226 -14.959326 -663.174072
v 61.310085 -71.165497 -658.325439
v 57.400631 -5.132709 -661.078552
v 57.595726 -48.870342 -659.751038
v 55.766548 10.187887 -658.227173
v 59.452656 -64.593086 -655.710083
v 56.556278 -46.230335 -653.122681
v 56.643700 -33.251347 -655.710144
v 55.418552 3.549276 -651.789795
v 55.319809 -29.045258 -648.459961
v 58.057121 -60.987305 -649.659851
v 56.254704 -53.874443 -643.457397
v 54.875862 13.182468 -651.350769
v 55.551548 -6.374602 -651.775452
v 59.309227 -68.424263 -634.504089
v 56.807991 -57.001064 -645.491028
v 54.739326 -14.895154 -645.148376
v 55.400272 -45.232918 -643.771667
v 60.187355 -71.251663 -638.342834
v 53.921711 -3.298016 -638.316589
v 54.256298 10.969985 -642.585205
v 55.096783 -38.903172 -640.271240
v 54.232487 -29.130312 -636.539062
v 53.362034 8.664179 -633.062012
v 57.087383 -63.731758 -610.043457
v 58.593918 -66.996765 -624.111206
v 53.062851 35.028427 -630.090149
v 54.867214 -48.252674 -630.686951
v 55.840248 -56.253952 -621.152161
v 54.001232 -37.643776 -632.653992
v 53.195435 -21.960295 -627.116272
v 52.462200 3.680803 -627.617981
v 52.513630 -3.693106 -625.793152
v 54.179989 -44.565311 -624.930786
v 60.967171 -75.299080 -617.680420
v 58.317322 -67.202568 -613.657959
v 51.124310 13.983618 -619.235535
v 51.151848 24.635891 -619.913086
v 52.883049 -32.688072 -619.159180
v 51.300636 5.041642 -617.873413
v 52.337158 -18.080814 -616.997253
v 53.420185 -41.771824 -607.063293
v 51.545132 -5.406451 -615.438049
v 52.236031 -26.146597 -613.613586
v 54.095425 -46.025349 -596.569092
v 55.694332 -56.483837 -608.832764
v 59.254250 -73.801750 -605.455139
v 50.647083 -2.542950 -605.709534
v 52.264450 -25.125481 -599.883301
v 51.655457 -11.067106 -607.359985
v 54.798130 -51.623367 -601.826294
v 56.322609 -61.325291 -600.627319
v 50.989872 16.643543 -602.673706
v 52.884243 -30.330755 -594.184143
v 58.587135 -75.794312 -584.503052
v 51.091686 0.540394 -589.335449
v 51.415165 -6.549610 -595.598267
v 55.533836 -56.079529 -585.844971
v 51.019039 14.668128 -593.029541
v 52.177467 -19.101746 -592.874817
v 53.620018 -36.109276 -590.612793
v 54.212368 -40.423683 -585.482910
v 54.837395 -48.372150 -585.231567
v 56.289680 -60.238316 -582.864380
v 57.463821 -70.538338 -584.969849
v 51.104424 6.961698 -582.005859
v 52.814842 -22.549768 -585.818970
v 52.176765 -6.608920 -586.416931
v 51.002342 13.793582 -585.244080
v 53.713139 -30.129229 -581.584229
v 53.164158 -13.082326 -579.864197
v 54.026058 -23.576014 -575.803345
v 57.114197 -63.650890 -576.917603
v 50.533611 13.272730 -578.138306
v 52.878719 -0.701449 -578.861755
v 54.964458 -33.142979 -574.087646
v 52.338707 5.819084 -573.199829
v 52.087788 15.437260 -578.907227
v 54.925861 -38.885029 -575.822632
v 58.598286 -68.714172 -570.898254
v 51.652294 16.952190 -575.736877
v 55.844742 -46.078659 -573.859802
v 56.626019 -53.412945 -572.320862
v 59.360096 -73.275612 -573.075378
v 52.414898 10.212285 -568.462646
v 53.876549 -2.585801 -572.281067
v 53.439331 2.307931 -569.854553
v 55.080017 -7.324920 -568.022949
v 55.328754 -25.299185 -569.784424
v 56.250473 -39.641960 -568.378723
v 57.823959 -61.847328 -569.711426
v 51.972733 18.099298 -568.209290
v 57.504185 -51.612656 -566.798096
v 59.185219 -66.333733 -566.451660
v 53.370018 15.860806 -562.566162
v 52.772579 19.568943 -566.635925
v 57.749199 -37.207844 -561.059875
v 57.724373 -46.481506 -564.766907
v 59.213078 -62.588425 -564.245178
v 65.164398 -78.213936 -558.639099
v 54.300045 7.756897 -561.063599
v 53.694664 21.395636 -563.201721
v 56.269661 -5.072119 -561.942261
v 56.316730 -28.921291 -563.784668
v 64.363174 -73.588326 -556.526550
v 55.634762 0.638856 -560.891846
v 56.150131 -18.346415 -563.589600
v 60.130123 -59.433510 -560.145752
v 58.994839 -45.456337 -559.485596
v 59.527176 -53.109322 -559.691772
v 55.382656 17.212868 -560.938171
v 55.297413 15.874727 -559.642578
v 54.476822 17.359560 -559.331604
v 55.047672 18.076914 -557.020142
v 58.653328 -28.996653 -555.642456
v 56.245464 4.054646 -555.288757
v 58.970608 -11.272783 -552.960266
v 56.168541 9.373320 -551.237915
v 57.861530 -1.532502 -552.498596
v 58.285713 -19.831078 -555.993530
v 55.623688 19.830894 -553.808655
v 60.136532 -39.313187 -553.411682
v 63.351994 -55.151840 -549.129761
v 61.578827 -46.437275 -551.295471
v 68.452431 -74.154900 -544.192017
v 67.241104 -68.842926 -543.973511
v 61.012852 -36.918877 -549.290100
v 60.953152 -29.612890 -547.258057
v 60.038353 -8.792610 -547.100952
v 65.980904 -60.982624 -543.034119
v 66.567551 -65.186310 -543.223816
v 58.629490 1.283218 -545.668274
v 59.880596 -4.121310 -544.308228
v 60.822044 -14.854462 -543.699097
v 63.896358 -45.138264 -541.489868
v 64.015831 -51.038387 -544.801575
vn -0.9986 0.0178 -0.0495
vn -0.9989 -0.0079 -0.0463
vn -0.9968 0.0536 -0.0598
vn -0.9985 -0.0380 -0.0385
vn -0.9912 -0.0127 -0.1319
vn -0.9915 -0.0487 -0.1208
vn -0.9908 -0.0559 -0.1231
vn -0.9970 0.0511 -0.0575
vn -0.9959 0.0290 -0.0856
vn -0.9931 0.0215 -0.1154
vn -0.9629 -0.2438 -0.1161
vn -0.9398 -0.3220 -0.1141
vn -0.9559 -0.2508 -0.1530
vn -0.9898 -0.0626 -0.1278
vn -0.9866 -0.0164 -0.1621
vn -0.9745 -0.0082 -0.2244
vn -0.9861 -0.0345 -0.1626
vn -0.9915 -0.0363 -0.1250
vn -0.9923 -0.0563 -0.1100
vn -0.9648 -0.0239 -0.2620
vn -0.9912 -0.0271 -0.1293
vn -0.8283 -0.0835 -0.5541
vn -0.9757 -0.1878 -0.1131
vn -0.9757 -0.1943 -0.1009
vn -0.9844 -0.1434 -0.1017
vn -0.9906 -0.1222 -0.0612
vn -0.9844 -0.1395 -0.1074
vn -0.9939 -0.0370 -0.1035
vn -0.9912 -0.0112 -0.1320
vn -0.9593 -0.2766 -0.0565
vn -0.9713 -0.2350 -0.0372
vn -0.9603 -0.2736 -0.0539
vn -0.9894 -0.1232 -0.0770
vn -0.9704 -0.2312 -0.0697
vn -0.9938 -0.0129 -0.1108
vn -0.9948 -0.0667 -0.0771
vn -0.9681 -0.2465 -0.0440
vn -0.9939 -0.0142 -0.1091
vn -0.9969 -0.0001 -0.0787
vn -0.9948 -0.0552 -0.0860
vn -0.9870 -0.1507 -0.0561
vn -0.9955 -0.0169 -0.0931
vn -0.9612 -0.2742 -0.0302
vn -0.9906 0.0062 -0.1366
vn -0.9656 -0.2537 -0.0568
vn -0.9772 -0.2093 -0.0359
vn -0.9798 -0.1856 -0.0739
vn -0.9831 -0.1803 -0.0307
vn -0.9911 -0.0896 -0.0988
vn -0.9958 -0.0144 -0.0909
vn -0.9962 -0.0388 -0.0777
vn -0.9959 -0.0251 -0.0873
vn -0.9918 -0.1116 -0.0629
vn -0.9911 -0.0149 -0.1321
vn -0.9937 -0.0371 -0.1053
vn -0.9842 0.0063 -0.1771
vn -0.9931 -0.1137 -0.0298
vn -0.9572 -0.2847 -0.0523
vn -0.9948 -0.0080 -0.1013
vn -0.9844 0.0040 -0.1760
vn -0.9765 -0.2140 -0.0243
vn -0.9828 -0.1817 -0.0323
vn -0.9967 -0.0666 -0.0465
vn -0.9944 -0.0412 -0.0968
vn -0.9973 -0.0395 -0.0624
vn -0.9974 -0.0726 0.0022
vn -0.9962 -0.0471 -0.0736
vn -0.9975 -0.0636 -0.0298
vn -0.9879 -0.1552 -0.0047
vn -0.9938 -0.1081 0.0259
vn -0.9881 -0.1528 -0.0146
vn -0.9789 -0.1988 -0.0474
vn -0.9139 -0.3993 -0.0731
vn -0.9094 -0.4086 -0.0774
vn -0.9959 -0.0419 -0.0796
vn -0.9999 0.0130 0.0011
vn -0.9989 -0.0452 -0.0157
vn -0.9931 -0.1173 -0.0056
vn -0.9899 -0.1416 -0.0042
vn -0.9871 -0.1598 -0.0040
vn -0.9352 -0.3538 0.0141
vn -0.9956 -0.0906 0.0238
vn -0.9948 -0.1013 -0.0050
vn -0.9991 -0.0425 -0.0046
vn -0.9961 -0.0776 0.0419
vn -0.9768 -0.2108 0.0382
vn -0.9954 -0.0624 0.0732
vn -0.9999 -0.0115 -0.0063
vn -0.9962 -0.0784 0.0374
vn -0.9935 -0.1027 0.0488
vn -0.9714 -0.2367 -0.0200
vn -1.0000 -0.0046 0.0021
vn -0.9782 -0.2014 -0.0503
vn -0.9977 -0.0481 0.0487
vn -0.9941 -0.0949 0.0534
vn -0.9957 -0.0581 0.0728
vn -0.9959 -0.0725 0.0536
vn -0.9895 -0.1383 0.0415
vn -0.9933 -0.0932 0.0678
vn -0.9843 -0.1702 0.0471
vn -0.9887 -0.1476 0.0260
vn -0.9966 -0.0681 0.0462
vn -0.9986 -0.0394 0.0363
vn -0.9940 -0.0815 0.0724
vn -1.0000 -0.0094 0.0010
vn -0.9932 -0.0890 0.0745
vn -0.9931 -0.0711 0.0934
vn -0.9914 -0.0751 0.1074
vn -0.9926 -0.0770 0.0936
vn -0.9998 -0.0172 -0.0047
vn -0.9897 -0.0300 0.1398
vn -0.9922 -0.0351 0.1196
vn -0.9843 -0.0451 0.1706
vn -0.9893 -0.1185 0.0854
vn -0.9927 -0.0507 0.1096
vn -0.9987 -0.0518 0.0009
vn -0.9965 -0.0477 -0.0692
vn -0.9904 -0.0572 0.1259
vn -0.9957 -0.0333 0.0870
vn -0.9838 -0.1447 0.1060
vn -0.9872 -0.0985 0.1252
vn -0.9853 -0.1189 0.1227
vn -0.9838 -0.0849 0.1578
vn -0.9690 -0.2029 0.1413
vn -0.9909 -0.0546 0.1233
vn -0.9787 -0.1699 0.1153
vn -0.9883 -0.0267 0.1499
vn -0.9850 -0.0952 0.1440
vn -0.9846 -0.0940 0.1472
vn -0.9698 -0.2160 0.1132
vn -0.9758 -0.1713 0.1355
vn -0.9824 -0.1227 0.1409
vn -0.9816 -0.1556 0.1112
vn -0.9856 -0.1157 0.1231
vn -0.9744 -0.1879 0.1234
vn -0.9752 -0.1555 0.1576
vn -0.9752 -0.1671 0.1454
vn -0.9871 -0.0684 0.1449
vn -0.7050 0.6252 0.3348
vn -0.9840 -0.1697 -0.0541
vn -0.9961 -0.0851 0.0243
vn -0.9905 -0.1357 -0.0206
vn -0.9794 -0.0451 0.1969
vn -0.9775 -0.0689 0.1996
vn -0.9709 -0.1659 0.1729
vn -0.9823 -0.0690 0.1740
vn -0.9847 -0.0355 0.1705
vn -0.9779 -0.0627 0.1996
vn -0.9754 -0.0987 0.1972
vn -0.9970 -0.0575 0.0512
vn -0.9716 -0.0921 0.2178
vn -0.9825 -0.1333 0.1301
vn -0.9441 -0.2242 0.2416
vn -0.9446 -0.1992 0.2610
vn -0.9743 -0.0616 0.2168
vn -0.9679 -0.0777 0.2391
vn -0.9701 -0.0718 0.2317
vn -0.9539 -0.1186 0.2756
vn -0.9194 -0.2837 0.2726
vn -0.9348 0.1832 0.3041
vn -0.9745 -0.1349 0.1790
vn -0.9655 -0.1830 0.1853
vn -0.9678 -0.0733 0.2409
vn -0.9693 -0.1446 0.1990
vn -0.9731 -0.0947 0.2099
vn -0.9641 -0.0919 0.2492
vn -0.9767 -0.0571 0.2071
vn -0.9199 -0.2674 0.2870
vn -0.9081 -0.0267 0.4179
vn -0.9660 -0.1540 0.2078
vn -0.9632 -0.1757 0.2032
vn -0.9804 -0.0207 0.1958
vn -0.9660 -0.0490 0.2538
vn -0.9485 -0.1187 0.2936
vn -0.9673 -0.1518 0.2033
vn -0.9726 0.0820 0.2175
vn -0.9616 0.0863 0.2604
vn -0.9666 0.0845 0.2419
vn -0.9579 -0.0879 0.2733
vn -0.9544 -0.0920 0.2839
vn -0.5745 0.2088 -0.7914
vn -0.9543 0.0887 0.2854
vn -0.7220 0.5045 0.4736
vn -0.9615 -0.0485 0.2703
vn -0.0499 0.1782 -0.9827
vn -0.9615 -0.1752 0.2116
vn -0.9615 -0.1751 0.2116
vn -0.9712 -0.0596 0.2308
vn -0.9818 -0.0161 0.1893
vn -0.9725 0.0285 0.2313
vn -0.9799 0.0063 0.1994
vn -0.9778 0.0129 0.2090
vn -0.9665 -0.1361 0.2175
vn -0.9621 -0.1732 0.2105
vn -0.9619 -0.0255 0.2723
vn -0.9621 -0.1736 0.2105
vn -0.9587 -0.0996 0.2664
vn -0.9460 -0.0961 0.3096
vn -0.9534 -0.1225 0.2756
vn -0.9270 -0.2240 0.3009
vn -0.9300 -0.2230 0.2923
vn -0.9836 -0.0069 0.1802
vn -0.9612 -0.0947 0.2592
vn -0.9637 -0.0837 0.2535
vn -0.9678 -0.0526 0.2461
vn -0.9561 -0.1172 0.2685
vn -0.9754 -0.0882 0.2018
vn -0.9419 -0.1308 0.3095
vn -0.9368 -0.1952 0.2903
vn -0.9667 -0.1794 0.1827
vn -0.9651 -0.1852 0.1849
vn -0.9648 -0.1865 0.1854
vn -0.9670 -0.1780 0.1821
vn -0.9833 -0.0396 0.1778
vn -0.9628 -0.0797 0.2582
vn -0.9701 -0.1478 0.1924
vn -0.9641 -0.1084 0.2422
vn -0.9557 -0.1426 0.2574
vn -0.9561 -0.1579 0.2469
s 1
f 2//1 8//2 4//3
f 6//4 8//2 2//1
f 8//5 6//6 13//7
f 4//8 8//5 5//9
f 5//9 8//5 7//10
f 1//11 15//12 3//13
f 13//7 16//14 8//5
f 8//5 17//15 7//10
f 7//10 17//15 10//16
f 9//17 18//18 14//19
f 10//16 17//15 12//20
f 8//5 16//14 17//15
f 17//15 19//21 9//17
f 17//15 9//17 12//22
f 15//23 20//24 3//25
f 13//7 21//26 16//14
f 3//25 20//24 6//27
f 18//18 22//28 14//19
f 9//17 19//21 23//29
f 9//17 23//29 18//18
f 15//30 24//31 20//32
f 6//6 25//33 13//7
f 16//14 19//21 17//15
f 6//27 20//24 25//34
f 23//29 19//21 26//35
f 23//29 26//35 18//18
f 16//14 27//36 19//21
f 13//7 25//33 21//26
f 1//11 28//37 15//12
f 22//28 18//18 29//38
f 22//28 29//38 30//39
f 27//36 31//40 19//21
f 1//11 11//41 28//37
f 26//35 29//38 18//18
f 19//21 32//42 26//35
f 21//26 27//36 16//14
f 15//12 28//37 24//43
f 29//38 33//44 30//39
f 25//34 20//24 34//45
f 20//32 24//31 35//46
f 26//35 32//42 29//38
f 27//36 37//47 31//40
f 21//26 38//48 27//36
f 31//40 39//49 19//21
f 19//50 39//51 32//42
f 39//51 40//52 32//42
f 32//42 40//52 29//38
f 31//40 37//53 39//49
f 33//44 29//38 41//54
f 29//38 42//55 41//54
f 27//36 38//48 37//47
f 33//44 41//54 36//56
f 40//52 42//55 29//38
f 37//53 43//57 39//49
f 20//24 45//58 34//45
f 41//54 46//59 47//60
f 41//54 47//60 36//56
f 25//33 34//61 21//26
f 20//32 35//46 45//62
f 39//51 48//63 40//52
f 21//26 34//61 38//48
f 41//54 49//64 46//59
f 40//52 50//65 42//55
f 39//51 51//66 48//63
f 42//55 50//65 52//67
f 42//55 49//64 41//54
f 48//63 53//68 40//52
f 42//55 52//67 49//64
f 39//49 43//57 51//69
f 43//57 37//53 54//70
f 38//48 55//71 37//47
f 24//31 56//72 35//46
f 35//46 56//72 45//62
f 28//37 44//73 24//43
f 40//52 53//68 50//65
f 24//43 44//73 56//74
f 49//64 52//67 57//75
f 53//76 58//76 50//76
f 50//65 59//77 52//67
f 37//53 60//78 54//70
f 38//48 61//79 55//71
f 37//47 55//71 60//80
f 34//61 61//81 38//48
f 53//68 48//63 58//82
f 57//83 46//59 49//64
f 50//65 58//84 59//77
f 48//63 63//85 58//82
f 54//70 51//69 43//57
f 45//58 64//86 34//45
f 46//59 57//83 65//87
f 46//59 65//87 62//88
f 59//77 66//89 52//67
f 48//63 51//66 63//85
f 55//71 67//90 60//80
f 52//91 66//89 57//83
f 65//92 68//92 62//92
f 56//72 64//93 45//62
f 59//77 58//84 69//94
f 59//77 69//94 66//89
f 51//66 70//95 63//85
f 57//83 66//89 65//87
f 54//70 71//96 51//69
f 51//69 71//96 70//97
f 55//71 61//79 67//98
f 60//78 72//99 54//70
f 61//81 34//61 73//100
f 34//45 64//86 74//101
f 58//82 63//85 69//102
f 61//79 73//100 67//98
f 65//103 75//104 68//105
f 63//106 76//107 69//94
f 69//94 77//108 66//89
f 72//99 71//96 54//70
f 67//90 72//99 60//80
f 66//89 77//108 65//87
f 69//94 76//107 77//108
f 70//95 79//109 63//85
f 68//105 75//104 78//110
f 76//107 80//111 77//112
f 63//106 81//113 76//107
f 34//61 82//114 73//100
f 63//85 79//109 81//115
f 34//45 74//101 82//116
f 75//117 83//117 78//117
f 80//111 84//118 77//112
f 70//97 71//96 85//119
f 70//120 85//121 79//109
f 65//103 86//122 75//104
f 65//87 77//108 84//123
f 65//124 84//124 86//124
f 76//107 81//113 80//111
f 72//99 88//125 71//96
f 74//101 64//86 89//126
f 71//96 88//125 85//127
f 72//99 67//90 91//128
f 67//98 73//100 92//129
f 93//130 89//126 64//86
f 75//131 94//131 83//131
f 84//118 80//111 95//132
f 91//128 88//125 72//99
f 74//101 89//126 82//133
f 75//104 86//122 94//134
f 84//135 96//136 86//137
f 67//98 92//129 91//138
f 73//100 82//114 92//129
f 83//139 94//139 87//139
f 87//140 94//141 90//142
f 80//111 81//113 97//143
f 80//111 97//143 95//144
f 79//109 85//121 81//115
f 84//118 95//132 96//145
f 85//146 98//147 81//113
f 88//125 91//128 99//148
f 82//114 100//149 92//129
f 90//142 94//141 101//150
f 81//113 98//147 97//143
f 88//125 99//148 85//127
f 92//129 102//151 91//138
f 82//133 89//126 100//152
f 89//153 103//154 100//149
f 94//155 104//155 101//155
f 85//127 99//148 106//156
f 91//128 107//157 99//148
f 100//149 108//158 92//129
f 102//151 107//157 91//138
f 93//159 109//159 89//159
f 104//160 105//160 101//160
f 96//136 110//161 86//137
f 86//162 110//163 94//164
f 95//144 97//143 112//165
f 106//166 113//167 85//146
f 85//146 113//167 98//147
f 89//153 109//159 114//168
f 104//169 94//164 110//163
f 96//145 115//170 110//171
f 96//145 95//132 112//165
f 96//145 112//165 115//170
f 113//167 116//172 98//147
f 98//147 116//172 97//143
f 92//173 108//158 117//174
f 92//129 117//175 102//151
f 105//176 104//177 111//178
f 107//157 118//179 99//148
f 102//151 119//180 107//157
f 89//153 114//168 103//154
f 97//143 116//172 112//165
f 99//148 118//179 106//156
f 110//163 121//181 104//169
f 104//177 122//182 111//178
f 104//183 121//183 120//183
f 113//167 124//184 112//165
f 113//167 112//165 116//172
f 119//180 118//179 107//157
f 102//151 117//174 119//180
f 100//149 103//154 108//158
f 121//181 110//163 122//185
f 115//186 125//187 110//186
f 112//165 126//188 115//170
f 113//167 106//166 124//184
f 110//189 127//189 122//189
f 122//190 127//191 123//192
f 115//170 128//193 125//194
f 124//184 129//195 112//165
f 129//195 126//188 112//165
f 110//186 125//187 127//196
f 106//166 131//197 124//184
f 119//180 132//198 118//179
f 118//179 133//199 106//156
f 114//168 134//200 103//154
f 126//188 128//193 115//170
f 117//174 108//158 135//201
f 123//192 127//191 130//202
f 129//195 124//184 126//188
f 131//197 136//203 124//204
f 124//184 137//205 126//188
f 133//206 131//197 106//166
f 118//179 132//198 133//199
f 108//158 103//154 134//200
f 126//188 138//207 128//193
f 119//180 117//174 139//208
f 135//201 140//209 117//174
f 117//174 140//209 139//208
f 134//200 135//201 108//158
f 128//210 141//211 125//212
f 128//210 142//213 141//211
f 126//188 137//205 143//214
f 124//184 136//215 137//205
f 131//197 133//206 136//203
f 128//193 138//207 142//216
f 126//188 143//214 138//207
f 133//217 144//217 136//217
f 132//198 145//218 133//199
f 119//180 139//208 132//198
f 145//218 144//219 133//199
