# Blender v2.79 (sub 0) OBJ File: ''
# www.blender.org
g Mball
v -126.129997 141.243927 -621.880005
v -126.166084 141.279999 -621.880005
v -126.147560 141.279999 -621.840027
v -126.129997 141.262436 -621.840027
v -126.129997 141.279999 -621.822449
v -126.129997 141.319992 -621.804016
v -126.166061 141.319992 -621.840027
v -126.129997 141.360001 -621.804016
v -126.166061 141.360001 -621.840027
v -126.169998 141.360001 -621.847046
v -126.169998 141.319992 -621.847046
v -126.181511 141.319992 -621.880005
v -126.181511 141.360001 -621.880005
v -126.181534 141.360001 -621.920044
v -126.181534 141.319992 -621.920044
v -126.169998 141.360001 -621.953125
v -126.169998 141.319992 -621.953125
v -126.169998 141.286942 -621.920044
v -126.166100 141.279999 -621.920044
v -126.147636 141.279999 -621.960022
v -126.166122 141.319992 -621.960022
v -126.169998 141.286972 -621.880005
v -126.129997 141.262360 -621.960022
v -126.129997 141.243896 -621.920044
v -126.089996 141.239990 -621.953125
v -126.089996 141.243881 -621.960022
v -126.123047 141.239990 -621.920044
v -126.123016 141.239990 -621.880005
v -126.089996 141.228470 -621.920044
v -126.050003 141.239990 -621.953064
v -126.050003 141.228485 -621.920044
v -126.089996 141.228485 -621.880005
v -126.050003 141.228500 -621.880005
v -126.050003 141.239990 -621.847046
v -126.089996 141.239990 -621.847046
v -126.089996 141.243942 -621.840027
v -126.050003 141.243958 -621.840027
v -126.050003 141.279999 -621.804016
v -126.089996 141.279999 -621.804016
v -126.089996 141.287064 -621.800049
v -126.050003 141.287079 -621.800049
v -126.050003 141.319992 -621.788574
v -126.089996 141.319992 -621.788574
v -126.050003 141.360001 -621.788574
v -126.089996 141.360001 -621.788574
v -126.089996 141.392929 -621.800049
v -126.050003 141.392914 -621.800049
v -126.050003 141.399994 -621.804016
v -126.089996 141.399994 -621.804016
v -126.089996 141.436050 -621.840027
v -126.050003 141.436035 -621.840027
v -126.050003 141.440002 -621.847046
v -126.089996 141.440002 -621.847046
v -126.089996 141.451508 -621.880005
v -126.050003 141.451492 -621.880005
v -126.050003 141.451508 -621.920044
v -126.089996 141.451523 -621.920044
v -126.050003 141.440002 -621.953064
v -126.089996 141.440002 -621.953125
v -126.089996 141.436111 -621.960022
v -126.050003 141.436096 -621.960022
v -126.050003 141.399994 -621.996155
v -126.089996 141.399994 -621.996155
v -126.089996 141.393112 -622.000000
v -126.050003 141.393097 -622.000000
v -126.050003 141.360001 -622.011597
v -126.089996 141.360001 -622.011597
v -126.089996 141.319992 -622.011597
v -126.050003 141.319992 -622.011597
v -126.089996 141.286880 -622.000000
v -126.050003 141.286896 -622.000000
v -126.050003 141.279999 -621.996155
v -126.089996 141.279999 -621.996155
v -126.050003 141.243896 -621.960022
v -126.123123 141.319992 -622.000000
v -126.129997 141.319992 -621.996155
v -126.129997 141.279999 -621.977661
v -126.129997 141.360001 -621.996155
v -126.123123 141.360001 -622.000000
v -126.166122 141.360001 -621.960022
v -126.016899 141.319992 -622.000000
v -126.016899 141.360001 -622.000000
v -126.010002 141.360001 -621.996155
v -126.010002 141.319992 -621.996155
v -125.973900 141.319992 -621.960022
v -125.973900 141.360001 -621.960022
v -125.970001 141.360001 -621.953064
v -125.970001 141.319992 -621.953064
v -125.992386 141.279999 -621.960022
v -125.973923 141.279999 -621.920044
v -125.970001 141.286987 -621.920044
v -125.973946 141.279999 -621.880005
v -125.970001 141.287018 -621.880005
v -125.970001 141.319992 -621.847046
v -125.992462 141.279999 -621.840027
v -125.973961 141.319992 -621.840027
v -126.010002 141.243942 -621.880005
v -126.010002 141.262451 -621.840027
v -126.010002 141.279999 -621.822510
v -125.970001 141.360001 -621.847046
v -125.973961 141.360001 -621.840027
v -126.010002 141.360001 -621.804016
v -126.010002 141.319992 -621.804016
v -126.010002 141.399994 -621.822510
v -125.992462 141.399994 -621.840027
v -126.017082 141.319992 -621.800049
v -126.017082 141.360001 -621.800049
v -125.973946 141.399994 -621.880005
v -125.970001 141.392975 -621.880005
v -125.970001 141.393005 -621.920044
v -125.973923 141.399994 -621.920044
v -125.958496 141.360001 -621.920044
v -125.958511 141.360001 -621.880005
v -125.958496 141.319992 -621.920044
v -125.958511 141.319992 -621.880005
v -126.010002 141.436050 -621.880005
v -126.010002 141.417542 -621.840027
v -126.010002 141.243912 -621.920044
v -126.010002 141.262375 -621.960022
v -126.010002 141.279999 -621.977661
v -126.016975 141.239990 -621.920044
v -125.992386 141.399994 -621.960022
v -126.010002 141.417618 -621.960022
v -126.010002 141.436081 -621.920044
v -126.010002 141.399994 -621.977661
v -126.129997 141.417633 -621.960022
v -126.129997 141.399994 -621.977661
v -126.147636 141.399994 -621.960022
v -126.129997 141.436096 -621.920044
v -126.166100 141.399994 -621.920044
v -126.129997 141.436066 -621.880005
v -126.166084 141.399994 -621.880005
v -126.129997 141.417557 -621.840027
v -126.147560 141.399994 -621.840027
v -126.129997 141.399994 -621.822449
v -126.123047 141.440002 -621.920044
v -126.123016 141.440002 -621.880005
v -126.169998 141.393051 -621.920044
v -126.016975 141.440002 -621.920044
v -126.017014 141.440002 -621.880005
v -126.122940 141.360001 -621.800049
v -126.122940 141.319992 -621.800049
v -126.017014 141.239990 -621.880005
v -126.169998 141.393021 -621.880005
vn -0.5744 -0.7981 0.1820
vn -0.4988 -0.7087 0.4989
vn -0.7102 -0.4975 0.4980
vn -0.7941 -0.5776 0.1890
vn -0.4979 -0.4972 0.7106
vn -0.7999 -0.1826 0.5716
vn -0.5716 -0.1823 0.8000
vn -0.7901 0.1760 0.5871
vn -0.5772 0.1879 0.7946
vn -0.8965 -0.1894 0.4006
vn -0.8924 0.1861 0.4110
vn -0.9733 0.1621 0.1625
vn -0.9733 -0.1620 0.1625
vn -0.9733 -0.1623 -0.1621
vn -0.9733 0.1624 -0.1621
vn -0.8926 -0.1854 -0.4110
vn -0.8962 0.1893 -0.4012
vn -0.8958 -0.4032 -0.1870
vn -0.7093 -0.4987 -0.4982
vn -0.7986 -0.5739 -0.1812
vn -0.7908 -0.1747 -0.5866
vn -0.8846 -0.4181 0.2065
vn -0.5779 -0.7941 -0.1881
vn -0.4975 -0.7106 -0.4975
vn -0.1823 -0.7997 -0.5720
vn -0.1888 -0.8964 -0.4011
vn -0.4185 -0.8847 -0.2052
vn -0.4034 -0.8955 0.1877
vn -0.1617 -0.9734 -0.1619
vn 0.1621 -0.9734 -0.1618
vn 0.1869 -0.8957 -0.4035
vn 0.1621 -0.9734 0.1621
vn -0.1619 -0.9733 0.1624
vn -0.1847 -0.8922 0.4121
vn 0.2061 -0.8839 0.4197
vn 0.1887 -0.7935 0.5785
vn -0.1736 -0.7901 0.5879
vn -0.1881 -0.5773 0.7945
vn 0.1832 -0.5713 0.8000
vn 0.1894 -0.4006 0.8965
vn -0.2046 -0.4181 0.8850
vn -0.1621 -0.1621 0.9734
vn 0.1622 -0.1622 0.9733
vn -0.1621 0.1621 0.9733
vn 0.1621 0.1621 0.9733
vn 0.1858 0.4104 0.8928
vn -0.2067 0.4177 0.8847
vn -0.1883 0.5769 0.7948
vn 0.1763 0.5860 0.7908
vn 0.1831 0.7990 0.5727
vn -0.1824 0.7992 0.5726
vn -0.1893 0.8959 0.4019
vn 0.1895 0.8958 0.4019
vn 0.1621 0.9733 0.1623
vn -0.1619 0.9733 0.1625
vn -0.1618 0.9734 -0.1620
vn 0.1621 0.9734 -0.1619
vn -0.1855 0.8924 -0.4114
vn 0.1854 0.8927 -0.4108
vn 0.1748 0.7909 -0.5865
vn -0.1757 0.7901 -0.5872
vn -0.1888 0.5768 -0.7947
vn 0.1812 0.5735 -0.7989
vn 0.1873 0.4026 -0.8960
vn -0.2076 0.4167 -0.8850
vn -0.1629 0.1628 -0.9731
vn 0.1630 0.1628 -0.9731
vn 0.1630 -0.1628 -0.9731
vn -0.1629 -0.1628 -0.9731
vn 0.2057 -0.4169 -0.8853
vn -0.2060 -0.4172 -0.8852
vn -0.1879 -0.5765 -0.7952
vn 0.1877 -0.5765 -0.7952
vn 0.1811 -0.7983 -0.5744
vn -0.5773 -0.1879 -0.7946
vn -0.4186 -0.2051 -0.8847
vn -0.4957 -0.4960 -0.7129
vn -0.4007 0.1894 -0.8964
vn -0.5714 0.1826 -0.8001
vn -0.7997 0.1824 -0.5719
vn 0.4180 -0.2049 -0.8850
vn 0.4098 0.1859 -0.8930
vn 0.5770 -0.1878 -0.7948
vn 0.5851 0.1756 -0.7917
vn 0.7911 0.1754 -0.5860
vn 0.8004 -0.1825 -0.5710
vn 0.8967 -0.1892 -0.4001
vn 0.8929 0.1858 -0.4101
vn 0.7941 -0.5778 -0.1884
vn 0.7113 -0.4972 -0.4968
vn 0.8844 -0.4186 -0.2064
vn 0.8958 -0.4031 0.1871
vn 0.7984 -0.5741 0.1816
vn 0.7086 -0.4988 0.4990
vn 0.8921 -0.1860 0.4117
vn 0.7894 -0.1760 0.5881
vn 0.4956 -0.7125 0.4967
vn 0.5777 -0.7940 0.1890
vn 0.4974 -0.4976 0.7106
vn 0.7996 0.1827 0.5721
vn 0.8963 0.1893 0.4010
vn 0.5756 -0.1888 0.7956
vn 0.5730 0.1817 0.7992
vn 0.7097 0.4978 0.4984
vn 0.4981 0.4986 0.7094
vn 0.4019 0.1873 0.8963
vn 0.4125 -0.2063 0.8873
vn 0.7945 0.5773 0.1883
vn 0.8860 0.4166 0.2035
vn 0.7985 0.5741 -0.1810
vn 0.8958 0.4032 -0.1867
vn 0.9733 0.1621 0.1623
vn 0.9734 0.1622 -0.1619
vn 0.9733 -0.1621 0.1623
vn 0.9734 -0.1622 -0.1619
vn 0.4973 0.7101 0.4984
vn 0.5781 0.7937 0.1895
vn 0.5870 -0.7904 -0.1752
vn 0.4988 -0.7090 -0.4984
vn 0.4962 -0.4961 -0.7125
vn 0.4106 -0.8927 -0.1856
vn 0.7099 0.4983 -0.4977
vn 0.5743 0.7983 -0.1812
vn 0.4991 0.7091 -0.4980
vn 0.4987 0.4987 -0.7089
vn -0.4974 0.4976 -0.7106
vn -0.4988 0.7092 -0.4983
vn -0.7107 0.4974 -0.4975
vn -0.7942 0.5778 -0.1882
vn -0.5740 0.7985 -0.1811
vn -0.7985 0.5738 0.1819
vn -0.5780 0.7938 0.1891
vn -0.7089 0.4986 0.4988
vn -0.4978 0.7101 0.4979
vn -0.4958 0.4956 0.7131
vn -0.4188 0.8842 0.2065
vn -0.4029 0.8960 -0.1869
vn -0.8842 0.4194 -0.2056
vn 0.4029 0.8959 -0.1869
vn 0.4187 0.8842 0.2070
vn -0.4190 0.2053 0.8845
vn -0.4009 -0.1890 0.8964
vn 0.4187 -0.8842 0.2069
vn -0.8958 0.4029 0.1876
s 1
f 1//1 4//2 3//3 2//4
f 3//3 4//2 5//5
f 7//6 3//3 5//5 6//7
f 9//8 7//6 6//7 8//9
f 11//10 7//6 9//8 10//11
f 13//12 12//13 11//10 10//11
f 15//14 12//13 13//12 14//15
f 17//16 15//14 14//15 16//17
f 18//18 15//14 17//16
f 20//19 19//20 18//18 17//16
f 21//21 20//19 17//16
f 19//20 2//4 22//22 18//18
f 24//23 19//20 20//19 23//24
f 24//23 23//24 26//25 25//26
f 27//27 24//23 25//26
f 27//27 28//28 1//1 24//23
f 29//29 27//27 25//26
f 31//30 29//29 25//26 30//31
f 33//32 32//33 29//29 31//30
f 35//34 32//33 33//32 34//35
f 37//36 36//37 35//34 34//35
f 39//38 36//37 37//36 38//39
f 41//40 40//41 39//38 38//39
f 43//42 40//41 41//40 42//43
f 45//44 43//42 42//43 44//45
f 47//46 46//47 45//44 44//45
f 49//48 46//47 47//46 48//49
f 51//50 50//51 49//48 48//49
f 53//52 50//51 51//50 52//53
f 55//54 54//55 53//52 52//53
f 57//56 54//55 55//54 56//57
f 59//58 57//56 56//57 58//59
f 61//60 60//61 59//58 58//59
f 63//62 60//61 61//60 62//63
f 65//64 64//65 63//62 62//63
f 67//66 64//65 65//64 66//67
f 69//68 68//69 67//66 66//67
f 71//70 70//71 68//69 69//68
f 73//72 70//71 71//70 72//73
f 74//74 26//25 73//72 72//73
f 76//75 75//76 70//71 73//72
f 77//77 76//75 73//72
f 79//78 75//76 76//75 78//79
f 76//75 21//21 80//80 78//79
f 81//81 71//70 69//68
f 68//69 75//76 79//78 67//66
f 82//82 81//81 69//68 66//67
f 84//83 81//81 82//82 83//84
f 86//85 85//86 84//83 83//84
f 88//87 85//86 86//85 87//88
f 90//89 89//90 85//86 88//87
f 91//91 90//89 88//87
f 93//92 92//93 90//89 91//91
f 95//94 92//93 93//92 94//95
f 96//96 95//94 94//95
f 92//93 95//94 98//97 97//98
f 98//97 95//94 99//99
f 101//100 96//96 94//95 100//101
f 103//102 96//96 101//100 102//103
f 102//103 101//100 105//104 104//105
f 107//106 106//107 103//102 102//103
f 108//108 105//104 101//100 100//101
f 109//109 108//108 100//101
f 111//110 108//108 109//109 110//111
f 109//109 113//112 112//113 110//111
f 110//111 112//113 87//88
f 113//112 115//114 114//115 112//113
f 117//116 105//104 108//108 116//117
f 113//112 109//109 100//101
f 94//95 115//114 113//112 100//101
f 93//92 115//114 94//95
f 90//89 92//93 97//98 118//118
f 89//90 90//89 118//118 119//119
f 89//90 119//119 120//120
f 121//121 30//31 74//74 119//119
f 118//118 121//121 119//119
f 114//115 91//91 88//87
f 122//122 111//110 110//111 87//88
f 86//85 122//122 87//88
f 124//123 111//110 122//122 123//124
f 123//124 122//122 125//125
f 112//113 114//115 88//87 87//88
f 85//86 89//90 120//120 84//83
f 122//122 86//85 83//84 125//125
f 79//78 64//65 67//66
f 65//64 82//82 66//67
f 127//126 126//127 60//61 63//62
f 128//128 126//127 127//126
f 128//128 130//129 129//130 126//127
f 130//129 132//131 131//132 129//130
f 132//131 134//133 133//134 131//132
f 133//134 134//133 135//135
f 131//132 137//136 136//137 129//130
f 130//129 128//128 80//80 16//17
f 138//138 130//129 16//17
f 62//63 61//60 123//124 125//125
f 126//127 129//130 136//137 59//58
f 60//61 126//127 59//58
f 58//59 139//139 124//123 123//124
f 61//60 58//59 123//124
f 139//139 140//140 116//117 124//123
f 136//137 57//56 59//58
f 56//57 139//139 58//59
f 55//54 140//140 139//139 56//57
f 54//55 137//136 53//52
f 140//140 55//54 52//53
f 131//132 133//134 50//51 53//52
f 137//136 131//132 53//52
f 52//53 51//50 117//116 116//117
f 140//140 52//53 116//117
f 117//116 51//50 48//49 104//105
f 8//9 141//141 46//47 49//48
f 135//135 8//9 49//48
f 47//46 107//106 102//103 104//105
f 48//49 47//46 104//105
f 46//47 141//141 45//44
f 107//106 47//46 44//45
f 141//141 142//142 43//42 45//44
f 42//43 106//107 107//106 44//45
f 41//40 106//107 42//43
f 41//40 38//39 99//99 103//102
f 106//107 41//40 103//102
f 38//39 37//36 98//97 99//99
f 28//28 32//33 35//34
f 33//32 143//143 34//35
f 121//121 143//143 33//32 31//30
f 121//121 31//30 30//31
f 25//26 26//25 74//74 30//31
f 14//15 138//138 16//17
f 80//80 21//21 17//16 16//17
f 14//15 13//12 144//144 138//138
f 12//13 22//22 11//10
f 144//144 13//12 10//11
f 134//133 9//8 8//9 135//135
f 6//7 142//142 141//141 8//9
f 142//142 6//7 5//5 39//38
f 40//41 142//142 39//38
f 5//5 4//2 36//37 39//38
f 1//1 2//4 19//20 24//23
f 23//24 20//19 77//77
f 2//4 3//3 7//6 11//10
f 22//22 2//4 11//10
f 22//22 12//13 15//14 18//18
f 77//77 20//19 21//21 76//75
f 134//133 132//131 144//144 10//11
f 9//8 134//133 10//11
f 144//144 132//131 130//129 138//138
f 78//79 80//80 128//128 127//126
f 4//2 1//1 28//28 35//34
f 36//37 4//2 35//34
f 32//33 28//28 27//27 29//29
f 26//25 23//24 77//77 73//72
f 142//142 40//41 43//42
f 70//71 75//76 68//69
f 50//51 133//134 135//135 49//48
f 136//137 137//136 54//55 57//56
f 79//78 78//79 127//126 63//62
f 64//65 79//78 63//62
f 37//36 34//35 143//143 97//98
f 98//97 37//36 97//98
f 97//98 143//143 121//121 118//118
f 119//119 74//74 72//73 120//120
f 99//99 95//94 96//96 103//102
f 114//115 115//114 93//92 91//91
f 72//73 71//70 81//81 84//83
f 120//120 72//73 84//83
f 105//104 117//116 104//105
f 116//117 108//108 111//110 124//123
f 82//82 65//64 62//63 125//125
f 83//84 82//82 125//125
